<?xml version="1.0" encoding="utf-8"?>
<!-- Generator: Adobe Illustrator 24.1.0, SVG Export Plug-In . SVG Version: 6.00 Build 0)  -->
<svg version="1.1" id="Layer_1" xmlns="http://www.w3.org/2000/svg" xmlns:xlink="http://www.w3.org/1999/xlink" x="0px" y="0px"
	 viewBox="0 0 3300 2200" style="enable-background:new 0 0 3300 2200;" xml:space="preserve">
<g id="Symbols">
	<g id="Black-L" transform="matrix(1 0 0 1 2833.74 1556)">
		<path d="M40,19.7h119.4c15.2,0,23.9-8.6,23.9-23.8v-62.5c0-15.2-8.6-23.8-23.9-23.8H40c-15.3,0-23.9,8.6-23.9,23.8v62.5
			C16.1,11.1,24.7,19.7,40,19.7z M42.7-0.5c-4.2,0-6.3-1.9-6.3-6.4v-56.8c0-4.5,2.1-6.4,6.3-6.4h114c4.2,0,6.4,1.9,6.4,6.4v56.8
			c0,4.5-2.1,6.4-6.4,6.4H42.7z M49.8-48.2h6c2.1,0,3.3-1.2,3.3-3.4v-6c0-2.1-1.2-3.4-3.3-3.4h-6c-2.1,0-3.4,1.2-3.4,3.4v6
			C46.4-49.4,47.7-48.2,49.8-48.2z M68.6-48.2h5.9c2.1,0,3.4-1.2,3.4-3.4v-6c0-2.1-1.2-3.4-3.4-3.4h-5.9c-2.1,0-3.4,1.2-3.4,3.4v6
			C65.2-49.4,66.4-48.2,68.6-48.2z M87.3-48.2h5.9c2.1,0,3.4-1.2,3.4-3.4v-6c0-2.1-1.2-3.4-3.4-3.4h-5.9c-2.1,0-3.4,1.2-3.4,3.4v6
			C83.9-49.4,85.2-48.2,87.3-48.2z M106.1-48.2h5.9c2.1,0,3.4-1.2,3.4-3.4v-6c0-2.1-1.2-3.4-3.4-3.4h-5.9c-2.1,0-3.4,1.2-3.4,3.4v6
			C102.7-49.4,103.9-48.2,106.1-48.2z M125.4-48.2h5.3c2.1,0,3.4-1.2,3.4-3.4v-6c0-2.1-1.2-3.4-3.4-3.4h-5.3c-2.5,0-4,1.2-4,3.4v6
			C121.4-49.4,122.9-48.2,125.4-48.2z M143.6-48.2h5.9c2.1,0,3.4-1.2,3.4-3.4v-6c0-2.1-1.2-3.4-3.4-3.4h-5.9c-2.1,0-3.4,1.2-3.4,3.4
			v6C140.2-49.4,141.4-48.2,143.6-48.2z M49.8-28.9h6c2.1,0,3.3-1.2,3.3-3.4v-6c0-2.1-1.2-3.3-3.3-3.3h-6c-2.1,0-3.4,1.2-3.4,3.3v6
			C46.4-30.1,47.7-28.9,49.8-28.9z M68.6-28.9h5.9c2.1,0,3.4-1.2,3.4-3.4v-6c0-2.1-1.2-3.3-3.4-3.3h-5.9c-2.1,0-3.4,1.2-3.4,3.3v6
			C65.2-30.1,66.4-28.9,68.6-28.9z M87.3-28.9h5.9c2.1,0,3.4-1.2,3.4-3.4v-6c0-2.1-1.2-3.3-3.4-3.3h-5.9c-2.1,0-3.4,1.2-3.4,3.3v6
			C83.9-30.1,85.2-28.9,87.3-28.9z M106.1-28.9h5.9c2.1,0,3.4-1.2,3.4-3.4v-6c0-2.1-1.2-3.3-3.4-3.3h-5.9c-2.1,0-3.4,1.2-3.4,3.3v6
			C102.7-30.1,103.9-28.9,106.1-28.9z M125.4-28.9h5.3c2.1,0,3.4-1.2,3.4-3.4v-6c0-2.1-1.2-3.3-3.4-3.3h-5.3c-2.5,0-4,1.2-4,3.3v6
			C121.4-30.1,122.9-28.9,125.4-28.9z M143.6-28.9h5.9c2.1,0,3.4-1.2,3.4-3.4v-6c0-2.1-1.2-3.3-3.4-3.3h-5.9c-2.1,0-3.4,1.2-3.4,3.3
			v6C140.2-30.1,141.4-28.9,143.6-28.9z M49.8-9.5h6c2.1,0,3.3-1.2,3.3-3.4v-6c0-2.1-1.2-3.3-3.3-3.3h-6c-2.1,0-3.4,1.2-3.4,3.3v6
			C46.4-10.7,47.7-9.5,49.8-9.5z M68.8-9.5h61.8c2.2,0,3.6-1.3,3.6-3.6v-5.6c0-2.3-1.3-3.6-3.6-3.6H68.8c-2.2,0-3.6,1.3-3.6,3.6v5.6
			C65.2-10.8,66.5-9.5,68.8-9.5z M143.6-9.5h5.9c2.1,0,3.4-1.2,3.4-3.4v-6c0-2.1-1.2-3.3-3.4-3.3h-5.9c-2.1,0-3.4,1.2-3.4,3.3v6
			C140.2-10.7,141.4-9.5,143.6-9.5z"/>
	</g>
	<g id="Heavy-L" transform="matrix(1 0 0 1 2538.2 1556)">
		<path d="M38.8,18.4h119.4c14.6,0,22.7-8.1,22.7-22.7v-62.1c0-14.6-8.1-22.7-22.7-22.7H38.8c-14.6,0-22.8,8.1-22.8,22.7v62.1
			C16.1,10.3,24.2,18.4,38.8,18.4z M40.9,0.8c-4.8,0-7.3-2.3-7.3-7.4v-57.5c0-5.1,2.5-7.4,7.3-7.4h115.1c4.8,0,7.4,2.3,7.4,7.4v57.5
			c0,5.1-2.6,7.4-7.4,7.4H40.9z M47.8-48.6h5.8c2.1,0,3.2-1.2,3.2-3.2v-5.9c0-2-1.2-3.2-3.2-3.2h-5.8c-2.1,0-3.2,1.2-3.2,3.2v5.9
			C44.5-49.9,45.7-48.6,47.8-48.6z M66.8-48.6h5.8c2.1,0,3.2-1.2,3.2-3.2v-5.9c0-2-1.2-3.2-3.2-3.2h-5.8c-2.1,0-3.2,1.2-3.2,3.2v5.9
			C63.6-49.9,64.8-48.6,66.8-48.6z M85.9-48.6h5.9c2,0,3.2-1.2,3.2-3.2v-5.9c0-2-1.2-3.2-3.2-3.2h-5.9c-2,0-3.2,1.2-3.2,3.2v5.9
			C82.7-49.9,83.9-48.6,85.9-48.6z M105.1-48.6h5.8c2.1,0,3.2-1.2,3.2-3.2v-5.9c0-2-1.2-3.2-3.2-3.2h-5.8c-2.1,0-3.2,1.2-3.2,3.2
			v5.9C101.9-49.9,103-48.6,105.1-48.6z M124.6-48.6h5.4c2.1,0,3.2-1.2,3.2-3.2v-5.9c0-2-1.2-3.2-3.2-3.2h-5.4
			c-2.3,0-3.7,1.2-3.7,3.2v5.9C120.9-49.9,122.3-48.6,124.6-48.6z M143.3-48.6h5.9c2,0,3.2-1.2,3.2-3.2v-5.9c0-2-1.2-3.2-3.2-3.2
			h-5.9c-2,0-3.2,1.2-3.2,3.2v5.9C140-49.9,141.3-48.6,143.3-48.6z M47.8-29.1h5.8c2.1,0,3.2-1.2,3.2-3.2v-5.9
			c0-2.1-1.2-3.2-3.2-3.2h-5.8c-2.1,0-3.2,1.2-3.2,3.2v5.9C44.5-30.3,45.7-29.1,47.8-29.1z M66.8-29.1h5.8c2.1,0,3.2-1.2,3.2-3.2
			v-5.9c0-2.1-1.2-3.2-3.2-3.2h-5.8c-2.1,0-3.2,1.2-3.2,3.2v5.9C63.6-30.3,64.8-29.1,66.8-29.1z M85.9-29.1h5.9c2,0,3.2-1.2,3.2-3.2
			v-5.9c0-2.1-1.2-3.2-3.2-3.2h-5.9c-2,0-3.2,1.2-3.2,3.2v5.9C82.7-30.3,83.9-29.1,85.9-29.1z M105.1-29.1h5.8
			c2.1,0,3.2-1.2,3.2-3.2v-5.9c0-2.1-1.2-3.2-3.2-3.2h-5.8c-2.1,0-3.2,1.2-3.2,3.2v5.9C101.9-30.3,103-29.1,105.1-29.1z M124.6-29.1
			h5.4c2.1,0,3.2-1.2,3.2-3.2v-5.9c0-2.1-1.2-3.2-3.2-3.2h-5.4c-2.3,0-3.7,1.2-3.7,3.2v5.9C120.9-30.3,122.3-29.1,124.6-29.1z
			 M143.3-29.1h5.9c2,0,3.2-1.2,3.2-3.2v-5.9c0-2.1-1.2-3.2-3.2-3.2h-5.9c-2,0-3.2,1.2-3.2,3.2v5.9C140-30.3,141.3-29.1,143.3-29.1z
			 M47.8-9.6h5.8c2.1,0,3.2-1.2,3.2-3.2v-5.9c0-2-1.2-3.2-3.2-3.2h-5.8c-2.1,0-3.2,1.2-3.2,3.2v5.9C44.5-10.7,45.7-9.6,47.8-9.6z
			 M67.1-9.6h62.6c2.2,0,3.5-1.3,3.5-3.5v-5.3c0-2.2-1.3-3.5-3.5-3.5H67.1c-2.2,0-3.5,1.3-3.5,3.5v5.3C63.6-10.8,64.9-9.6,67.1-9.6z
			 M143.3-9.6h5.9c2,0,3.2-1.2,3.2-3.2v-5.9c0-2-1.2-3.2-3.2-3.2h-5.9c-2,0-3.2,1.2-3.2,3.2v5.9C140-10.7,141.3-9.6,143.3-9.6z"/>
	</g>
	<g id="Bold-L" transform="matrix(1 0 0 1 2242.79 1556)">
		<path d="M37.5,16.8h119.3c13.9,0,21.5-7.5,21.5-21.3v-61.6c0-13.8-7.6-21.3-21.5-21.3H37.5c-13.9,0-21.4,7.5-21.4,21.3v61.6
			C16.1,9.3,23.6,16.8,37.5,16.8z M39,2.4c-5.5,0-8.4-2.8-8.4-8.5v-58.3c0-5.8,2.9-8.5,8.4-8.5h116.5c5.4,0,8.4,2.7,8.4,8.5v58.3
			c0,5.8-3,8.5-8.4,8.5H39z M45.5-49.2h5.7c1.9,0,3-1.1,3-3.1V-58c0-1.9-1.1-3-3-3h-5.7c-2,0-3.1,1.1-3.1,3v5.8
			C42.4-50.3,43.5-49.2,45.5-49.2z M64.9-49.2h5.7c2,0,3.1-1.1,3.1-3.1V-58c0-1.9-1.1-3-3.1-3h-5.7c-1.9,0-3.1,1.1-3.1,3v5.8
			C61.9-50.3,63-49.2,64.9-49.2z M84.5-49.2h5.7c1.9,0,3-1.1,3-3.1V-58c0-1.9-1.1-3-3-3h-5.7c-2,0-3.1,1.1-3.1,3v5.8
			C81.4-50.3,82.5-49.2,84.5-49.2z M104-49.2h5.7c2,0,3.1-1.1,3.1-3.1V-58c0-1.9-1.1-3-3.1-3H104c-1.9,0-3.1,1.1-3.1,3v5.8
			C100.9-50.3,102.1-49.2,104-49.2z M123.8-49.2h5.4c1.9,0,3-1.1,3-3.1V-58c0-1.9-1.1-3-3-3h-5.4c-2.1,0-3.4,1.1-3.4,3v5.8
			C120.4-50.3,121.6-49.2,123.8-49.2z M143-49.2h5.7c2,0,3.1-1.1,3.1-3.1V-58c0-1.9-1.1-3-3.1-3H143c-1.9,0-3.1,1.1-3.1,3v5.8
			C139.9-50.3,141.1-49.2,143-49.2z M45.5-29.4h5.7c1.9,0,3-1.1,3-3.1v-5.7c0-2-1.1-3.1-3-3.1h-5.7c-2,0-3.1,1.1-3.1,3.1v5.7
			C42.4-30.5,43.5-29.4,45.5-29.4z M64.9-29.4h5.7c2,0,3.1-1.1,3.1-3.1v-5.7c0-2-1.1-3.1-3.1-3.1h-5.7c-1.9,0-3.1,1.1-3.1,3.1v5.7
			C61.9-30.5,63-29.4,64.9-29.4z M84.5-29.4h5.7c1.9,0,3-1.1,3-3.1v-5.7c0-2-1.1-3.1-3-3.1h-5.7c-2,0-3.1,1.1-3.1,3.1v5.7
			C81.4-30.5,82.5-29.4,84.5-29.4z M104-29.4h5.7c2,0,3.1-1.1,3.1-3.1v-5.7c0-2-1.1-3.1-3.1-3.1H104c-1.9,0-3.1,1.1-3.1,3.1v5.7
			C100.9-30.5,102.1-29.4,104-29.4z M123.8-29.4h5.4c1.9,0,3-1.1,3-3.1v-5.7c0-2-1.1-3.1-3-3.1h-5.4c-2.1,0-3.4,1.1-3.4,3.1v5.7
			C120.4-30.5,121.6-29.4,123.8-29.4z M143-29.4h5.7c2,0,3.1-1.1,3.1-3.1v-5.7c0-2-1.1-3.1-3.1-3.1H143c-1.9,0-3.1,1.1-3.1,3.1v5.7
			C139.9-30.5,141.1-29.4,143-29.4z M45.5-9.6h5.7c1.9,0,3-1.2,3-3.1v-5.8c0-1.9-1.1-3-3-3h-5.7c-2,0-3.1,1.1-3.1,3v5.8
			C42.4-10.7,43.5-9.6,45.5-9.6z M65.3-9.6h63.5c2.2,0,3.4-1.3,3.4-3.4v-5c0-2.2-1.2-3.4-3.4-3.4H65.3c-2.1,0-3.4,1.2-3.4,3.4v5
			C61.9-10.8,63.1-9.6,65.3-9.6z M143-9.6h5.7c2,0,3.1-1.2,3.1-3.1v-5.8c0-1.9-1.1-3-3.1-3H143c-1.9,0-3.1,1.1-3.1,3v5.8
			C139.9-10.7,141.1-9.6,143-9.6z"/>
	</g>
	<g id="Semibold-L" transform="matrix(1 0 0 1 1946.98 1556)">
		<path d="M36.6,15.8H156c13.4,0,20.6-7.1,20.6-20.4V-66c0-13.3-7.1-20.4-20.6-20.4H36.6c-13.5,0-20.6,7.1-20.6,20.4v61.3
			C16.1,8.7,23.1,15.8,36.6,15.8z M37.6,3.4c-6,0-9.2-3.1-9.2-9.3v-58.9c0-6.2,3.2-9.3,9.2-9.3H155c5.9,0,9.2,3,9.2,9.3v58.9
			c0,6.2-3.3,9.3-9.2,9.3H37.6z M43.8-49.6h5.6c1.9,0,3-1.1,3-2.9v-5.7c0-1.9-1.1-3-3-3h-5.6c-1.9,0-3,1.1-3,3v5.7
			C40.9-50.6,42-49.6,43.8-49.6z M63.6-49.6h5.7c1.9,0,2.9-1.1,2.9-2.9v-5.7c0-1.9-1.1-3-2.9-3h-5.7c-1.9,0-2.9,1.1-2.9,3v5.7
			C60.7-50.6,61.8-49.6,63.6-49.6z M83.4-49.6h5.7c1.9,0,2.9-1.1,2.9-2.9v-5.7c0-1.9-1.1-3-2.9-3h-5.7c-1.9,0-2.9,1.1-2.9,3v5.7
			C80.5-50.6,81.5-49.6,83.4-49.6z M103.2-49.6h5.6c1.9,0,3-1.1,3-2.9v-5.7c0-1.9-1.1-3-3-3h-5.6c-1.9,0-3,1.1-3,3v5.7
			C100.2-50.6,101.3-49.6,103.2-49.6z M123.2-49.6h5.4c1.9,0,3-1.1,3-2.9v-5.7c0-1.9-1.1-3-3-3h-5.4c-2,0-3.2,1.1-3.2,3v5.7
			C120-50.6,121.2-49.6,123.2-49.6z M142.8-49.6h5.6c1.9,0,3-1.1,3-2.9v-5.7c0-1.9-1.1-3-3-3h-5.6c-1.9,0-3,1.1-3,3v5.7
			C139.8-50.6,140.9-49.6,142.8-49.6z M43.8-29.6h5.6c1.9,0,3-1.1,3-2.9v-5.7c0-1.9-1.1-3-3-3h-5.6c-1.9,0-3,1.1-3,3v5.7
			C40.9-30.7,42-29.6,43.8-29.6z M63.6-29.6h5.7c1.9,0,2.9-1.1,2.9-2.9v-5.7c0-1.9-1.1-3-2.9-3h-5.7c-1.9,0-2.9,1.1-2.9,3v5.7
			C60.7-30.7,61.8-29.6,63.6-29.6z M83.4-29.6h5.7c1.9,0,2.9-1.1,2.9-2.9v-5.7c0-1.9-1.1-3-2.9-3h-5.7c-1.9,0-2.9,1.1-2.9,3v5.7
			C80.5-30.7,81.5-29.6,83.4-29.6z M103.2-29.6h5.6c1.9,0,3-1.1,3-2.9v-5.7c0-1.9-1.1-3-3-3h-5.6c-1.9,0-3,1.1-3,3v5.7
			C100.2-30.7,101.3-29.6,103.2-29.6z M123.2-29.6h5.4c1.9,0,3-1.1,3-2.9v-5.7c0-1.9-1.1-3-3-3h-5.4c-2,0-3.2,1.1-3.2,3v5.7
			C120-30.7,121.2-29.6,123.2-29.6z M142.8-29.6h5.6c1.9,0,3-1.1,3-2.9v-5.7c0-1.9-1.1-3-3-3h-5.6c-1.9,0-3,1.1-3,3v5.7
			C139.8-30.7,140.9-29.6,142.8-29.6z M43.8-9.6h5.6c1.9,0,3-1.1,3-2.9v-5.7c0-1.9-1.1-3-3-3h-5.6c-1.9,0-3,1.1-3,3v5.7
			C40.9-10.7,42-9.6,43.8-9.6z M64.1-9.6h64.2c2.1,0,3.4-1.2,3.4-3.4v-4.8c0-2.1-1.2-3.4-3.4-3.4H64.1c-2.1,0-3.4,1.2-3.4,3.4v4.8
			C60.7-10.8,61.9-9.6,64.1-9.6z M142.8-9.6h5.6c1.9,0,3-1.1,3-2.9v-5.7c0-1.9-1.1-3-3-3h-5.6c-1.9,0-3,1.1-3,3v5.7
			C139.8-10.7,140.9-9.6,142.8-9.6z"/>
	</g>
	<g id="Medium-L" transform="matrix(1 0 0 1 1650.95 1556)">
		<path d="M35.9,14.9h119.3c13.1,0,19.9-6.8,19.9-19.7v-61.1c0-12.9-6.8-19.7-19.9-19.7H35.9c-13.1,0-19.9,6.7-19.9,19.7v61.1
			C16.1,8.2,22.9,14.9,35.9,14.9z M36.6,4.2c-6.3,0-9.8-3.3-9.8-9.9v-59.3c0-6.6,3.4-9.9,9.8-9.9h118.1c6.2,0,9.8,3.3,9.8,9.9v59.3
			c0,6.6-3.6,9.9-9.8,9.9H36.6z M42.6-49.8h5.6c1.8,0,2.8-1.1,2.8-2.9v-5.6c0-1.8-1-2.9-2.8-2.9h-5.6c-1.8,0-2.9,1.1-2.9,2.9v5.6
			C39.7-50.9,40.8-49.8,42.6-49.8z M62.6-49.8h5.6c1.8,0,2.9-1.1,2.9-2.9v-5.6c0-1.8-1.1-2.9-2.9-2.9h-5.6c-1.8,0-2.9,1.1-2.9,2.9
			v5.6C59.8-50.9,60.8-49.8,62.6-49.8z M82.6-49.8h5.6c1.8,0,2.9-1.1,2.9-2.9v-5.6c0-1.8-1.1-2.9-2.9-2.9h-5.6
			c-1.8,0-2.9,1.1-2.9,2.9v5.6C79.7-50.9,80.8-49.8,82.6-49.8z M102.6-49.8h5.6c1.8,0,2.9-1.1,2.9-2.9v-5.6c0-1.8-1.1-2.9-2.9-2.9
			h-5.6c-1.8,0-2.9,1.1-2.9,2.9v5.6C99.8-50.9,100.8-49.8,102.6-49.8z M122.7-49.8h5.5c1.8,0,2.9-1.1,2.9-2.9v-5.6
			c0-1.8-1.1-2.9-2.9-2.9h-5.5c-1.9,0-3,1.1-3,2.9v5.6C119.7-50.9,120.8-49.8,122.7-49.8z M142.6-49.8h5.6c1.8,0,2.9-1.1,2.9-2.9
			v-5.6c0-1.8-1.1-2.9-2.9-2.9h-5.6c-1.8,0-2.9,1.1-2.9,2.9v5.6C139.7-50.9,140.8-49.8,142.6-49.8z M42.6-29.7h5.6
			c1.8,0,2.8-1.1,2.8-2.9v-5.6c0-1.8-1-2.9-2.8-2.9h-5.6c-1.8,0-2.9,1.1-2.9,2.9v5.6C39.7-30.8,40.8-29.7,42.6-29.7z M62.6-29.7h5.6
			c1.8,0,2.9-1.1,2.9-2.9v-5.6c0-1.8-1.1-2.9-2.9-2.9h-5.6c-1.8,0-2.9,1.1-2.9,2.9v5.6C59.8-30.8,60.8-29.7,62.6-29.7z M82.6-29.7
			h5.6c1.8,0,2.9-1.1,2.9-2.9v-5.6c0-1.8-1.1-2.9-2.9-2.9h-5.6c-1.8,0-2.9,1.1-2.9,2.9v5.6C79.7-30.8,80.8-29.7,82.6-29.7z
			 M102.6-29.7h5.6c1.8,0,2.9-1.1,2.9-2.9v-5.6c0-1.8-1.1-2.9-2.9-2.9h-5.6c-1.8,0-2.9,1.1-2.9,2.9v5.6
			C99.8-30.8,100.8-29.7,102.6-29.7z M122.7-29.7h5.5c1.8,0,2.9-1.1,2.9-2.9v-5.6c0-1.8-1.1-2.9-2.9-2.9h-5.5c-1.9,0-3,1.1-3,2.9
			v5.6C119.7-30.8,120.8-29.7,122.7-29.7z M142.6-29.7h5.6c1.8,0,2.9-1.1,2.9-2.9v-5.6c0-1.8-1.1-2.9-2.9-2.9h-5.6
			c-1.8,0-2.9,1.1-2.9,2.9v5.6C139.7-30.8,140.8-29.7,142.6-29.7z M42.6-9.6h5.6c1.8,0,2.8-1.1,2.8-2.9v-5.6c0-1.8-1-2.9-2.8-2.9
			h-5.6c-1.8,0-2.9,1.1-2.9,2.9v5.6C39.7-10.7,40.8-9.6,42.6-9.6z M63.1-9.6h64.6c2.1,0,3.3-1.2,3.3-3.3v-4.7c0-2.1-1.2-3.3-3.3-3.3
			H63.1c-2.1,0-3.3,1.2-3.3,3.3v4.7C59.8-10.8,61-9.6,63.1-9.6z M142.6-9.6h5.6c1.8,0,2.9-1.1,2.9-2.9v-5.6c0-1.8-1.1-2.9-2.9-2.9
			h-5.6c-1.8,0-2.9,1.1-2.9,2.9v5.6C139.7-10.7,140.8-9.6,142.6-9.6z"/>
	</g>
	<g id="Regular-L" transform="matrix(1 0 0 1 1355.14 1556)">
		<path d="M35.1,13.9h119.3c12.6,0,19-6.4,19-18.8v-60.7c0-12.5-6.4-18.8-19-18.8H35.1c-12.6,0-19,6.3-19,18.8v60.7
			C16.1,7.6,22.4,13.9,35.1,13.9z M35.3,5.3c-6.8,0-10.5-3.7-10.5-10.6v-59.9c0-7,3.7-10.6,10.5-10.6h118.9
			c6.7,0,10.5,3.6,10.5,10.6v59.9c0,7-3.9,10.6-10.5,10.6H35.3z M41.1-50.2h5.5c1.7,0,2.7-1,2.7-2.7v-5.5c0-1.7-1-2.8-2.7-2.8h-5.5
			c-1.7,0-2.7,1.1-2.7,2.8v5.5C38.3-51.2,39.4-50.2,41.1-50.2z M61.3-50.2h5.5c1.7,0,2.8-1,2.8-2.7v-5.5c0-1.7-1.1-2.8-2.8-2.8h-5.5
			c-1.7,0-2.7,1.1-2.7,2.8v5.5C58.6-51.2,59.6-50.2,61.3-50.2z M81.6-50.2h5.5c1.7,0,2.8-1,2.8-2.7v-5.5c0-1.7-1.1-2.8-2.8-2.8h-5.5
			c-1.7,0-2.7,1.1-2.7,2.8v5.5C78.9-51.2,79.9-50.2,81.6-50.2z M101.9-50.2h5.5c1.7,0,2.8-1,2.8-2.7v-5.5c0-1.7-1.1-2.8-2.8-2.8
			h-5.5c-1.7,0-2.7,1.1-2.7,2.8v5.5C99.1-51.2,100.1-50.2,101.9-50.2z M122.1-50.2h5.5c1.8,0,2.8-1,2.8-2.7v-5.5
			c0-1.7-1-2.8-2.8-2.8h-5.5c-1.7,0-2.7,1.1-2.7,2.8v5.5C119.4-51.2,120.4-50.2,122.1-50.2z M142.4-50.2h5.5c1.8,0,2.8-1,2.8-2.7
			v-5.5c0-1.7-1-2.8-2.8-2.8h-5.5c-1.7,0-2.7,1.1-2.7,2.8v5.5C139.6-51.2,140.7-50.2,142.4-50.2z M41.1-29.9h5.5
			c1.7,0,2.7-1,2.7-2.7v-5.5c0-1.7-1-2.7-2.7-2.7h-5.5c-1.7,0-2.7,1-2.7,2.7v5.5C38.3-31,39.4-29.9,41.1-29.9z M61.3-29.9h5.5
			c1.7,0,2.8-1,2.8-2.7v-5.5c0-1.7-1.1-2.7-2.8-2.7h-5.5c-1.7,0-2.7,1-2.7,2.7v5.5C58.6-31,59.6-29.9,61.3-29.9z M81.6-29.9h5.5
			c1.7,0,2.8-1,2.8-2.7v-5.5c0-1.7-1.1-2.7-2.8-2.7h-5.5c-1.7,0-2.7,1-2.7,2.7v5.5C78.9-31,79.9-29.9,81.6-29.9z M101.9-29.9h5.5
			c1.7,0,2.8-1,2.8-2.7v-5.5c0-1.7-1.1-2.7-2.8-2.7h-5.5c-1.7,0-2.7,1-2.7,2.7v5.5C99.1-31,100.1-29.9,101.9-29.9z M122.1-29.9h5.5
			c1.8,0,2.8-1,2.8-2.7v-5.5c0-1.7-1-2.7-2.8-2.7h-5.5c-1.7,0-2.7,1-2.7,2.7v5.5C119.4-31,120.4-29.9,122.1-29.9z M142.4-29.9h5.5
			c1.8,0,2.8-1,2.8-2.7v-5.5c0-1.7-1-2.7-2.8-2.7h-5.5c-1.7,0-2.7,1-2.7,2.7v5.5C139.6-31,140.7-29.9,142.4-29.9z M41.1-9.6h5.5
			c1.7,0,2.7-1.1,2.7-2.8v-5.5c0-1.7-1-2.7-2.7-2.7h-5.5c-1.7,0-2.7,1-2.7,2.7v5.5C38.3-10.7,39.4-9.6,41.1-9.6z M61.8-9.6h65.3
			c2.1,0,3.3-1.2,3.3-3.3v-4.5c0-2.1-1.2-3.2-3.3-3.2H61.8c-2.1,0-3.2,1.2-3.2,3.2v4.5C58.6-10.8,59.8-9.6,61.8-9.6z M142.4-9.6h5.5
			c1.8,0,2.8-1.1,2.8-2.8v-5.5c0-1.7-1-2.7-2.8-2.7h-5.5c-1.7,0-2.7,1-2.7,2.7v5.5C139.6-10.7,140.7-9.6,142.4-9.6z"/>
	</g>
	<g id="Light-L" transform="matrix(1 0 0 1 1059.29 1556)">
		<path d="M34,13.1h119.6c11.9,0,18-6.2,18-17.8v-61.1c0-11.7-6.2-17.9-18-17.9H34c-11.9,0-18,6.1-18,17.9v61.1
			C16.1,7,22.2,13.1,34,13.1z M34.2,6.5c-7.5,0-11.5-4-11.5-11.6v-60.4c0-7.7,4-11.6,11.5-11.6h119.3c7.3,0,11.5,4,11.5,11.6v60.4
			c0,7.6-4.2,11.6-11.5,11.6H34.2z M40.3-50.5h5.1c1.7,0,2.7-1,2.7-2.7v-5.1c0-1.7-1-2.7-2.7-2.7h-5.1c-1.8,0-2.7,1-2.7,2.7v5.1
			C37.5-51.5,38.5-50.5,40.3-50.5z M60.5-50.5h5.1c1.7,0,2.7-1,2.7-2.7v-5.1c0-1.7-1-2.7-2.7-2.7h-5.1c-1.8,0-2.7,1-2.7,2.7v5.1
			C57.8-51.5,58.8-50.5,60.5-50.5z M80.8-50.5h5.1c1.7,0,2.7-1,2.7-2.7v-5.1c0-1.7-1-2.7-2.7-2.7h-5.1c-1.8,0-2.7,1-2.7,2.7v5.1
			C78.1-51.5,79.1-50.5,80.8-50.5z M101.1-50.5h5.1c1.7,0,2.7-1,2.7-2.7v-5.1c0-1.7-1-2.7-2.7-2.7h-5.1c-1.7,0-2.7,1-2.7,2.7v5.1
			C98.4-51.5,99.4-50.5,101.1-50.5z M121.3-50.5h5.1c1.7,0,2.7-1,2.7-2.7v-5.1c0-1.7-1-2.7-2.7-2.7h-5.1c-1.7,0-2.7,1-2.7,2.7v5.1
			C118.7-51.5,119.6-50.5,121.3-50.5z M141.6-50.5h5.1c1.7,0,2.7-1,2.7-2.7v-5.1c0-1.7-1-2.7-2.7-2.7h-5.1c-1.7,0-2.7,1-2.7,2.7v5.1
			C138.9-51.5,139.9-50.5,141.6-50.5z M40.3-30.3h5.1c1.7,0,2.7-1,2.7-2.7v-5.1c0-1.7-1-2.7-2.7-2.7h-5.1c-1.8,0-2.7,1-2.7,2.7v5.1
			C37.5-31.2,38.5-30.3,40.3-30.3z M60.5-30.3h5.1c1.7,0,2.7-1,2.7-2.7v-5.1c0-1.7-1-2.7-2.7-2.7h-5.1c-1.8,0-2.7,1-2.7,2.7v5.1
			C57.8-31.2,58.8-30.3,60.5-30.3z M80.8-30.3h5.1c1.7,0,2.7-1,2.7-2.7v-5.1c0-1.7-1-2.7-2.7-2.7h-5.1c-1.8,0-2.7,1-2.7,2.7v5.1
			C78.1-31.2,79.1-30.3,80.8-30.3z M101.1-30.3h5.1c1.7,0,2.7-1,2.7-2.7v-5.1c0-1.7-1-2.7-2.7-2.7h-5.1c-1.7,0-2.7,1-2.7,2.7v5.1
			C98.4-31.2,99.4-30.3,101.1-30.3z M121.3-30.3h5.1c1.7,0,2.7-1,2.7-2.7v-5.1c0-1.7-1-2.7-2.7-2.7h-5.1c-1.7,0-2.7,1-2.7,2.7v5.1
			C118.7-31.2,119.6-30.3,121.3-30.3z M141.6-30.3h5.1c1.7,0,2.7-1,2.7-2.7v-5.1c0-1.7-1-2.7-2.7-2.7h-5.1c-1.7,0-2.7,1-2.7,2.7v5.1
			C138.9-31.2,139.9-30.3,141.6-30.3z M40.3-10h5.1c1.7,0,2.7-1,2.7-2.7v-5.1c0-1.7-1-2.7-2.7-2.7h-5.1c-1.8,0-2.7,1-2.7,2.7v5.1
			C37.5-11,38.5-10,40.3-10z M60.8-10h65.3c2,0,3-1.1,3-3v-4.5c0-2-1.1-3-3-3H60.8c-2,0-3,1.1-3,3v4.5C57.8-11.1,58.9-10,60.8-10z
			 M141.6-10h5.1c1.7,0,2.7-1,2.7-2.7v-5.1c0-1.7-1-2.7-2.7-2.7h-5.1c-1.7,0-2.7,1-2.7,2.7v5.1C138.9-11,139.9-10,141.6-10z"/>
	</g>
	<g id="Thin-L" transform="matrix(1 0 0 1 763.746 1556)">
		<path d="M32.7,12.1h120c10.9,0,16.6-5.9,16.6-16.6v-61.6c0-10.7-5.7-16.6-16.6-16.6h-120c-10.9,0-16.6,5.8-16.6,16.6v61.6
			C16.1,6.3,21.8,12.1,32.7,12.1z M32.8,8.1C24.4,8.1,20,3.8,20-4.7V-66c0-8.4,4.4-12.8,12.8-12.8h119.7c8.2,0,12.8,4.4,12.8,12.8
			v61.2c0,8.5-4.7,12.8-12.8,12.8H32.8z M39.2-51h4.6c1.7,0,2.6-0.9,2.6-2.6v-4.6c0-1.7-0.9-2.6-2.6-2.6h-4.6
			c-1.7,0-2.6,0.9-2.6,2.6v4.6C36.6-51.9,37.5-51,39.2-51z M59.5-51h4.6c1.7,0,2.6-0.9,2.6-2.6v-4.6c0-1.7-0.9-2.6-2.6-2.6h-4.6
			c-1.7,0-2.6,0.9-2.6,2.6v4.6C56.8-51.9,57.8-51,59.5-51z M79.7-51h4.6c1.7,0,2.6-0.9,2.6-2.6v-4.6c0-1.7-0.9-2.6-2.6-2.6h-4.6
			c-1.7,0-2.6,0.9-2.6,2.6v4.6C77.1-51.9,78-51,79.7-51z M100-51h4.6c1.7,0,2.6-0.9,2.6-2.6v-4.6c0-1.7-0.9-2.6-2.6-2.6H100
			c-1.7,0-2.6,0.9-2.6,2.6v4.6C97.4-51.9,98.3-51,100-51z M120.3-51h4.6c1.7,0,2.6-0.9,2.6-2.6v-4.6c0-1.7-0.9-2.6-2.6-2.6h-4.6
			c-1.7,0-2.6,0.9-2.6,2.6v4.6C117.7-51.9,118.6-51,120.3-51z M140.5-51h4.6c1.7,0,2.6-0.9,2.6-2.6v-4.6c0-1.7-0.9-2.6-2.6-2.6h-4.6
			c-1.7,0-2.6,0.9-2.6,2.6v4.6C137.9-51.9,138.8-51,140.5-51z M39.2-30.7h4.6c1.7,0,2.6-0.9,2.6-2.6v-4.6c0-1.7-0.9-2.6-2.6-2.6
			h-4.6c-1.7,0-2.6,0.9-2.6,2.6v4.6C36.6-31.6,37.5-30.7,39.2-30.7z M59.5-30.7h4.6c1.7,0,2.6-0.9,2.6-2.6v-4.6
			c0-1.7-0.9-2.6-2.6-2.6h-4.6c-1.7,0-2.6,0.9-2.6,2.6v4.6C56.8-31.6,57.8-30.7,59.5-30.7z M79.7-30.7h4.6c1.7,0,2.6-0.9,2.6-2.6
			v-4.6c0-1.7-0.9-2.6-2.6-2.6h-4.6c-1.7,0-2.6,0.9-2.6,2.6v4.6C77.1-31.6,78-30.7,79.7-30.7z M100-30.7h4.6c1.7,0,2.6-0.9,2.6-2.6
			v-4.6c0-1.7-0.9-2.6-2.6-2.6H100c-1.7,0-2.6,0.9-2.6,2.6v4.6C97.4-31.6,98.3-30.7,100-30.7z M120.3-30.7h4.6
			c1.7,0,2.6-0.9,2.6-2.6v-4.6c0-1.7-0.9-2.6-2.6-2.6h-4.6c-1.7,0-2.6,0.9-2.6,2.6v4.6C117.7-31.6,118.6-30.7,120.3-30.7z
			 M140.5-30.7h4.6c1.7,0,2.6-0.9,2.6-2.6v-4.6c0-1.7-0.9-2.6-2.6-2.6h-4.6c-1.7,0-2.6,0.9-2.6,2.6v4.6
			C137.9-31.6,138.8-30.7,140.5-30.7z M39.2-10.4h4.6c1.7,0,2.6-0.9,2.6-2.6v-4.6c0-1.7-0.9-2.6-2.6-2.6h-4.6
			c-1.7,0-2.6,0.9-2.6,2.6v4.6C36.6-11.4,37.5-10.4,39.2-10.4z M59.5-10.4h65.3c1.8,0,2.7-0.9,2.7-2.7v-4.5c0-1.8-0.9-2.7-2.7-2.7
			H59.5c-1.8,0-2.7,0.9-2.7,2.7v4.5C56.8-11.4,57.8-10.4,59.5-10.4z M140.5-10.4h4.6c1.7,0,2.6-0.9,2.6-2.6v-4.6
			c0-1.7-0.9-2.6-2.6-2.6h-4.6c-1.7,0-2.6,0.9-2.6,2.6v4.6C137.9-11.4,138.8-10.4,140.5-10.4z"/>
	</g>
	<g id="Ultralight-L" transform="matrix(1 0 0 1 467.621 1556)">
		<path d="M32,11.5h120.3c10.4,0,15.9-5.7,15.9-15.9v-61.9c0-10.2-5.5-15.9-15.9-15.9H32c-10.4,0-15.9,5.6-15.9,15.9v61.9
			C16.1,6,21.6,11.5,32,11.5z M32.1,9C23.2,9,18.6,4.3,18.6-4.5v-61.6c0-8.9,4.6-13.5,13.5-13.5h119.9c8.6,0,13.5,4.6,13.5,13.5
			v61.6c0,8.9-4.9,13.5-13.5,13.5H32.1z M38.6-51.2H43c1.7,0,2.5-0.9,2.5-2.5v-4.4c0-1.7-0.8-2.5-2.5-2.5h-4.4
			c-1.7,0-2.5,0.8-2.5,2.5v4.4C36.1-52.1,37-51.2,38.6-51.2z M58.9-51.2h4.4c1.7,0,2.5-0.9,2.5-2.5v-4.4c0-1.7-0.8-2.5-2.5-2.5h-4.4
			c-1.7,0-2.5,0.8-2.5,2.5v4.4C56.3-52.1,57.2-51.2,58.9-51.2z M79.2-51.2h4.4c1.7,0,2.5-0.9,2.5-2.5v-4.4c0-1.7-0.8-2.5-2.5-2.5
			h-4.4c-1.7,0-2.5,0.8-2.5,2.5v4.4C76.6-52.1,77.5-51.2,79.2-51.2z M99.4-51.2h4.4c1.7,0,2.5-0.9,2.5-2.5v-4.4
			c0-1.7-0.8-2.5-2.5-2.5h-4.4c-1.7,0-2.5,0.8-2.5,2.5v4.4C96.9-52.1,97.8-51.2,99.4-51.2z M119.7-51.2h4.4c1.7,0,2.5-0.9,2.5-2.5
			v-4.4c0-1.7-0.8-2.5-2.5-2.5h-4.4c-1.7,0-2.5,0.8-2.5,2.5v4.4C117.1-52.1,118-51.2,119.7-51.2z M140-51.2h4.3
			c1.7,0,2.5-0.9,2.5-2.5v-4.4c0-1.7-0.8-2.5-2.5-2.5H140c-1.7,0-2.6,0.8-2.6,2.5v4.4C137.4-52.1,138.3-51.2,140-51.2z M38.6-31H43
			c1.7,0,2.5-0.9,2.5-2.5v-4.4c0-1.7-0.8-2.5-2.5-2.5h-4.4c-1.7,0-2.5,0.8-2.5,2.5v4.4C36.1-31.8,37-31,38.6-31z M58.9-31h4.4
			c1.7,0,2.5-0.9,2.5-2.5v-4.4c0-1.7-0.8-2.5-2.5-2.5h-4.4c-1.7,0-2.5,0.8-2.5,2.5v4.4C56.3-31.8,57.2-31,58.9-31z M79.2-31h4.4
			c1.7,0,2.5-0.9,2.5-2.5v-4.4c0-1.7-0.8-2.5-2.5-2.5h-4.4c-1.7,0-2.5,0.8-2.5,2.5v4.4C76.6-31.8,77.5-31,79.2-31z M99.4-31h4.4
			c1.7,0,2.5-0.9,2.5-2.5v-4.4c0-1.7-0.8-2.5-2.5-2.5h-4.4c-1.7,0-2.5,0.8-2.5,2.5v4.4C96.9-31.8,97.8-31,99.4-31z M119.7-31h4.4
			c1.7,0,2.5-0.9,2.5-2.5v-4.4c0-1.7-0.8-2.5-2.5-2.5h-4.4c-1.7,0-2.5,0.8-2.5,2.5v4.4C117.1-31.8,118-31,119.7-31z M140-31h4.3
			c1.7,0,2.5-0.9,2.5-2.5v-4.4c0-1.7-0.8-2.5-2.5-2.5H140c-1.7,0-2.6,0.8-2.6,2.5v4.4C137.4-31.8,138.3-31,140-31z M38.6-10.7H43
			c1.7,0,2.5-0.9,2.5-2.5v-4.4c0-1.7-0.8-2.5-2.5-2.5h-4.4c-1.7,0-2.5,0.9-2.5,2.5v4.4C36.1-11.6,37-10.7,38.6-10.7z M58.8-10.7
			h65.3c1.7,0,2.5-0.8,2.5-2.5v-4.5c0-1.7-0.8-2.5-2.5-2.5H58.8c-1.6,0-2.5,0.8-2.5,2.5v4.5C56.3-11.5,57.2-10.7,58.8-10.7z
			 M140-10.7h4.3c1.7,0,2.5-0.9,2.5-2.5v-4.4c0-1.7-0.8-2.5-2.5-2.5H140c-1.7,0-2.6,0.9-2.6,2.5v4.4C137.4-11.6,138.3-10.7,140-10.7
			z"/>
	</g>
	<g id="Black-M" transform="matrix(1 0 0 1 2855.03 1126)">
		<path d="M32,8.8h92.8c12.3,0,19.5-7.3,19.5-19.5v-49.2c0-12.3-7.3-19.5-19.5-19.5H32c-12.3,0-19.5,7.3-19.5,19.5v49.2
			C12.5,1.5,19.7,8.8,32,8.8z M34.9-9.5c-2.8,0-4.2-1.1-4.2-4.2V-57c0-3.1,1.3-4.2,4.2-4.2h86.9c2.8,0,4.2,1.1,4.2,4.2v43.3
			c0,3.1-1.4,4.2-4.2,4.2H34.9z M40.9-44.8h4.6c1.7,0,2.7-1,2.7-2.7v-4.6c0-1.8-1-2.7-2.7-2.7h-4.6c-1.8,0-2.7,1-2.7,2.7v4.6
			C38.2-45.8,39.2-44.8,40.9-44.8z M55-44.8h4.5c1.8,0,2.8-1,2.8-2.7v-4.6c0-1.8-1-2.7-2.8-2.7H55c-1.8,0-2.7,1-2.7,2.7v4.6
			C52.2-45.8,53.2-44.8,55-44.8z M69-44.8h4.5c1.8,0,2.7-1,2.7-2.7v-4.6c0-1.8-1-2.7-2.7-2.7H69c-1.8,0-2.8,1-2.8,2.7v4.6
			C66.3-45.8,67.3-44.8,69-44.8z M83.1-44.8h4.5c1.8,0,2.8-1,2.8-2.7v-4.6c0-1.8-1-2.7-2.8-2.7h-4.5c-1.8,0-2.7,1-2.7,2.7v4.6
			C80.3-45.8,81.3-44.8,83.1-44.8z M97.8-44.8h3.9c1.8,0,2.8-1,2.8-2.7v-4.6c0-1.8-1-2.7-2.8-2.7h-3.9c-2.1,0-3.4,1-3.4,2.7v4.6
			C94.4-45.8,95.6-44.8,97.8-44.8z M111.2-44.8h4.5c1.8,0,2.7-1,2.7-2.7v-4.6c0-1.8-1-2.7-2.7-2.7h-4.5c-1.8,0-2.8,1-2.8,2.7v4.6
			C108.4-45.8,109.4-44.8,111.2-44.8z M40.9-30.1h4.6c1.7,0,2.7-1,2.7-2.8v-4.6c0-1.8-1-2.7-2.7-2.7h-4.6c-1.8,0-2.7,1-2.7,2.7v4.6
			C38.2-31.2,39.2-30.1,40.9-30.1z M55-30.1h4.5c1.8,0,2.8-1,2.8-2.8v-4.6c0-1.8-1-2.7-2.8-2.7H55c-1.8,0-2.7,1-2.7,2.7v4.6
			C52.2-31.2,53.2-30.1,55-30.1z M69-30.1h4.5c1.8,0,2.7-1,2.7-2.8v-4.6c0-1.8-1-2.7-2.7-2.7H69c-1.8,0-2.8,1-2.8,2.7v4.6
			C66.3-31.2,67.3-30.1,69-30.1z M83.1-30.1h4.5c1.8,0,2.8-1,2.8-2.8v-4.6c0-1.8-1-2.7-2.8-2.7h-4.5c-1.8,0-2.7,1-2.7,2.7v4.6
			C80.3-31.2,81.3-30.1,83.1-30.1z M97.8-30.1h3.9c1.8,0,2.8-1,2.8-2.8v-4.6c0-1.8-1-2.7-2.8-2.7h-3.9c-2.1,0-3.4,1-3.4,2.7v4.6
			C94.4-31.2,95.6-30.1,97.8-30.1z M111.2-30.1h4.5c1.8,0,2.7-1,2.7-2.8v-4.6c0-1.8-1-2.7-2.7-2.7h-4.5c-1.8,0-2.8,1-2.8,2.7v4.6
			C108.4-31.2,109.4-30.1,111.2-30.1z M40.9-15.4h4.6c1.7,0,2.7-1,2.7-2.8v-4.6c0-1.8-1-2.8-2.7-2.8h-4.6c-1.8,0-2.7,1-2.7,2.8v4.6
			C38.2-16.5,39.2-15.4,40.9-15.4z M55-15.4h46.7c1.8,0,2.8-1,2.8-2.8v-4.6c0-1.7-1-2.7-2.8-2.7H55c-1.8,0-2.7,1-2.7,2.7v4.6
			C52.2-16.5,53.2-15.4,55-15.4z M111.2-15.4h4.5c1.8,0,2.7-1,2.7-2.8v-4.6c0-1.8-1-2.8-2.7-2.8h-4.5c-1.8,0-2.8,1-2.8,2.8v4.6
			C108.4-16.5,109.4-15.4,111.2-15.4z"/>
	</g>
	<g id="Heavy-M" transform="matrix(1 0 0 1 2559.39 1126)">
		<path d="M31,7.5h92.6c11.8,0,18.5-6.8,18.5-18.5v-48.6c0-11.8-6.7-18.5-18.5-18.5H31c-11.8,0-18.6,6.7-18.6,18.5V-11
			C12.5,0.7,19.2,7.5,31,7.5z M33.3-8.3c-3.3,0-5-1.4-5-5v-43.9c0-3.6,1.7-5,5-5h88.1c3.3,0,5,1.5,5,5v43.9c0,3.6-1.7,5-5,5H33.3z
			 M38.9-45.3h4.5c1.7,0,2.6-0.9,2.6-2.6v-4.6c0-1.7-1-2.6-2.6-2.6h-4.5c-1.7,0-2.6,1-2.6,2.6v4.6C36.3-46.2,37.3-45.3,38.9-45.3z
			 M53.3-45.3h4.5c1.7,0,2.6-0.9,2.6-2.6v-4.6c0-1.7-1-2.6-2.6-2.6h-4.5c-1.7,0-2.6,1-2.6,2.6v4.6C50.7-46.2,51.7-45.3,53.3-45.3z
			 M67.8-45.3h4.5c1.7,0,2.6-0.9,2.6-2.6v-4.6c0-1.7-0.9-2.6-2.6-2.6h-4.5c-1.7,0-2.6,1-2.6,2.6v4.6C65.1-46.2,66.1-45.3,67.8-45.3z
			 M82.2-45.3h4.5c1.7,0,2.6-0.9,2.6-2.6v-4.6c0-1.7-1-2.6-2.6-2.6h-4.5c-1.7,0-2.6,1-2.6,2.6v4.6C79.6-46.2,80.6-45.3,82.2-45.3z
			 M97.1-45.3h4.1c1.7,0,2.6-0.9,2.6-2.6v-4.6c0-1.7-1-2.6-2.6-2.6h-4.1c-2,0-3.1,1-3.1,2.6v4.6C94-46.2,95.2-45.3,97.1-45.3z
			 M111.1-45.3h4.5c1.7,0,2.6-0.9,2.6-2.6v-4.6c0-1.7-0.9-2.6-2.6-2.6h-4.5c-1.7,0-2.6,1-2.6,2.6v4.6
			C108.4-46.2,109.4-45.3,111.1-45.3z M38.9-30.3h4.5c1.7,0,2.6-1,2.6-2.6v-4.5c0-1.7-1-2.6-2.6-2.6h-4.5c-1.7,0-2.6,1-2.6,2.6v4.5
			C36.3-31.3,37.3-30.3,38.9-30.3z M53.3-30.3h4.5c1.7,0,2.6-1,2.6-2.6v-4.5c0-1.7-1-2.6-2.6-2.6h-4.5c-1.7,0-2.6,1-2.6,2.6v4.5
			C50.7-31.3,51.7-30.3,53.3-30.3z M67.8-30.3h4.5c1.7,0,2.6-1,2.6-2.6v-4.5c0-1.7-0.9-2.6-2.6-2.6h-4.5c-1.7,0-2.6,1-2.6,2.6v4.5
			C65.1-31.3,66.1-30.3,67.8-30.3z M82.2-30.3h4.5c1.7,0,2.6-1,2.6-2.6v-4.5c0-1.7-1-2.6-2.6-2.6h-4.5c-1.7,0-2.6,1-2.6,2.6v4.5
			C79.6-31.3,80.6-30.3,82.2-30.3z M97.1-30.3h4.1c1.7,0,2.6-1,2.6-2.6v-4.5c0-1.7-1-2.6-2.6-2.6h-4.1c-2,0-3.1,1-3.1,2.6v4.5
			C94-31.3,95.2-30.3,97.1-30.3z M111.1-30.3h4.5c1.7,0,2.6-1,2.6-2.6v-4.5c0-1.7-0.9-2.6-2.6-2.6h-4.5c-1.7,0-2.6,1-2.6,2.6v4.5
			C108.4-31.3,109.4-30.3,111.1-30.3z M38.9-15.4h4.5c1.7,0,2.6-1,2.6-2.6v-4.6c0-1.7-1-2.6-2.6-2.6h-4.5c-1.7,0-2.6,0.9-2.6,2.6
			v4.6C36.3-16.4,37.3-15.4,38.9-15.4z M53.4-15.4h47.7c1.7,0,2.7-1,2.7-2.7v-4.4c0-1.7-1-2.7-2.7-2.7H53.4c-1.7,0-2.7,1-2.7,2.7
			v4.4C50.7-16.4,51.7-15.4,53.4-15.4z M111.1-15.4h4.5c1.7,0,2.6-1,2.6-2.6v-4.6c0-1.7-0.9-2.6-2.6-2.6h-4.5
			c-1.7,0-2.6,0.9-2.6,2.6v4.6C108.4-16.4,109.4-15.4,111.1-15.4z"/>
	</g>
	<g id="Bold-M" transform="matrix(1 0 0 1 2263.85 1126)">
		<path d="M29.9,6.1h92.5c11.2,0,17.4-6.2,17.4-17.3v-48c0-11.1-6.2-17.3-17.4-17.3H29.9c-11.2,0-17.4,6.2-17.4,17.3v48
			C12.5-0.1,18.7,6.1,29.9,6.1z M31.4-7c-3.9,0-5.9-1.9-5.9-5.9v-44.7c0-4.1,2-5.9,5.9-5.9h89.5c3.8,0,5.9,1.9,5.9,5.9v44.7
			c0,4.1-2.1,5.9-5.9,5.9H31.4z M36.6-45.7h4.5c1.6,0,2.5-0.9,2.5-2.5v-4.5c0-1.6-0.9-2.4-2.5-2.4h-4.5c-1.6,0-2.5,0.9-2.5,2.4v4.5
			C34.1-46.6,35.1-45.7,36.6-45.7z M51.5-45.7H56c1.6,0,2.5-0.9,2.5-2.5v-4.5c0-1.6-0.9-2.4-2.5-2.4h-4.5c-1.6,0-2.5,0.9-2.5,2.4
			v4.5C49-46.6,50-45.7,51.5-45.7z M66.4-45.7h4.5c1.5,0,2.4-0.9,2.4-2.5v-4.5c0-1.6-0.9-2.4-2.4-2.4h-4.5c-1.6,0-2.4,0.9-2.4,2.4
			v4.5C63.9-46.6,64.8-45.7,66.4-45.7z M81.2-45.7h4.5c1.6,0,2.5-0.9,2.5-2.5v-4.5c0-1.6-0.9-2.4-2.5-2.4h-4.5
			c-1.6,0-2.5,0.9-2.5,2.4v4.5C78.8-46.6,79.7-45.7,81.2-45.7z M96.4-45.7h4.2c1.6,0,2.4-0.9,2.4-2.5v-4.5c0-1.6-0.9-2.4-2.4-2.4
			h-4.2c-1.8,0-2.8,0.9-2.8,2.4v4.5C93.7-46.6,94.7-45.7,96.4-45.7z M111-45.7h4.5c1.6,0,2.5-0.9,2.5-2.5v-4.5
			c0-1.6-0.9-2.4-2.5-2.4H111c-1.6,0-2.4,0.9-2.4,2.4v4.5C108.5-46.6,109.4-45.7,111-45.7z M36.6-30.5h4.5c1.6,0,2.5-0.9,2.5-2.5
			v-4.5c0-1.6-0.9-2.4-2.5-2.4h-4.5c-1.6,0-2.5,0.9-2.5,2.4v4.5C34.1-31.4,35.1-30.5,36.6-30.5z M51.5-30.5H56
			c1.6,0,2.5-0.9,2.5-2.5v-4.5c0-1.6-0.9-2.4-2.5-2.4h-4.5C50-40,49-39.1,49-37.5v4.5C49-31.4,50-30.5,51.5-30.5z M66.4-30.5h4.5
			c1.5,0,2.4-0.9,2.4-2.5v-4.5c0-1.6-0.9-2.4-2.4-2.4h-4.5c-1.6,0-2.4,0.9-2.4,2.4v4.5C63.9-31.4,64.8-30.5,66.4-30.5z M81.2-30.5
			h4.5c1.6,0,2.5-0.9,2.5-2.5v-4.5c0-1.6-0.9-2.4-2.5-2.4h-4.5c-1.6,0-2.5,0.9-2.5,2.4v4.5C78.8-31.4,79.7-30.5,81.2-30.5z
			 M96.4-30.5h4.2c1.6,0,2.4-0.9,2.4-2.5v-4.5c0-1.6-0.9-2.4-2.4-2.4h-4.2c-1.8,0-2.8,0.9-2.8,2.4v4.5
			C93.7-31.4,94.7-30.5,96.4-30.5z M111-30.5h4.5c1.6,0,2.5-0.9,2.5-2.5v-4.5c0-1.6-0.9-2.4-2.5-2.4H111c-1.6,0-2.4,0.9-2.4,2.4v4.5
			C108.5-31.4,109.4-30.5,111-30.5z M36.6-15.3h4.5c1.6,0,2.5-0.9,2.5-2.5v-4.5c0-1.6-0.9-2.5-2.5-2.5h-4.5c-1.6,0-2.5,0.9-2.5,2.5
			v4.5C34.1-16.3,35.1-15.3,36.6-15.3z M51.7-15.3h48.7c1.7,0,2.7-1,2.7-2.7v-4.1c0-1.7-1-2.7-2.7-2.7H51.7c-1.7,0-2.7,1-2.7,2.7
			v4.1C49-16.3,50-15.3,51.7-15.3z M111-15.3h4.5c1.6,0,2.5-0.9,2.5-2.5v-4.5c0-1.6-0.9-2.5-2.5-2.5H111c-1.6,0-2.4,0.9-2.4,2.5v4.5
			C108.5-16.3,109.4-15.3,111-15.3z"/>
	</g>
	<g id="Semibold-M" transform="matrix(1 0 0 1 1967.95 1126)">
		<path d="M29.1,5h92.4c10.8,0,16.7-5.8,16.7-16.5v-47.6c0-10.8-5.8-16.6-16.7-16.6H29.1c-10.8,0-16.7,5.8-16.7,16.6v47.6
			C12.5-0.7,18.3,5,29.1,5z M30.1-6.2c-4.2,0-6.5-2.1-6.5-6.5v-45.2c0-4.4,2.2-6.6,6.5-6.6h90.4c4.1,0,6.5,2.1,6.5,6.6v45.2
			c0,4.4-2.3,6.5-6.5,6.5H30.1z M35.1-46h4.5c1.5,0,2.3-0.9,2.3-2.3v-4.5c0-1.5-0.9-2.3-2.3-2.3h-4.5c-1.5,0-2.4,0.9-2.4,2.3v4.5
			C32.7-46.9,33.5-46,35.1-46z M50.2-46h4.5c1.5,0,2.3-0.9,2.3-2.3v-4.5c0-1.5-0.9-2.3-2.3-2.3h-4.5c-1.5,0-2.4,0.9-2.4,2.3v4.5
			C47.9-46.9,48.7-46,50.2-46z M65.4-46h4.5c1.5,0,2.4-0.9,2.4-2.3v-4.5c0-1.5-0.9-2.3-2.4-2.3h-4.5c-1.5,0-2.3,0.9-2.3,2.3v4.5
			C63-46.9,63.9-46,65.4-46z M80.6-46h4.5c1.5,0,2.4-0.9,2.4-2.3v-4.5c0-1.5-0.9-2.3-2.4-2.3h-4.5c-1.5,0-2.3,0.9-2.3,2.3v4.5
			C78.2-46.9,79.1-46,80.6-46z M95.9-46h4.3c1.5,0,2.4-0.9,2.4-2.3v-4.5c0-1.5-0.9-2.3-2.4-2.3h-4.3c-1.6,0-2.5,0.9-2.5,2.3v4.5
			C93.4-46.9,94.3-46,95.9-46z M110.9-46h4.5c1.5,0,2.3-0.9,2.3-2.3v-4.5c0-1.5-0.9-2.3-2.3-2.3h-4.5c-1.5,0-2.4,0.9-2.4,2.3v4.5
			C108.5-46.9,109.5-46,110.9-46z M35.1-30.7h4.5c1.5,0,2.3-0.9,2.3-2.3v-4.5c0-1.5-0.9-2.3-2.3-2.3h-4.5c-1.5,0-2.4,0.9-2.4,2.3
			v4.5C32.7-31.5,33.5-30.7,35.1-30.7z M50.2-30.7h4.5c1.5,0,2.3-0.9,2.3-2.3v-4.5c0-1.5-0.9-2.3-2.3-2.3h-4.5
			c-1.5,0-2.4,0.9-2.4,2.3v4.5C47.9-31.5,48.7-30.7,50.2-30.7z M65.4-30.7h4.5c1.5,0,2.4-0.9,2.4-2.3v-4.5c0-1.5-0.9-2.3-2.4-2.3
			h-4.5c-1.5,0-2.3,0.9-2.3,2.3v4.5C63-31.5,63.9-30.7,65.4-30.7z M80.6-30.7h4.5c1.5,0,2.4-0.9,2.4-2.3v-4.5c0-1.5-0.9-2.3-2.4-2.3
			h-4.5c-1.5,0-2.3,0.9-2.3,2.3v4.5C78.2-31.5,79.1-30.7,80.6-30.7z M95.9-30.7h4.3c1.5,0,2.4-0.9,2.4-2.3v-4.5
			c0-1.5-0.9-2.3-2.4-2.3h-4.3c-1.6,0-2.5,0.9-2.5,2.3v4.5C93.4-31.5,94.3-30.7,95.9-30.7z M110.9-30.7h4.5c1.5,0,2.3-0.9,2.3-2.3
			v-4.5c0-1.5-0.9-2.3-2.3-2.3h-4.5c-1.5,0-2.4,0.9-2.4,2.3v4.5C108.5-31.5,109.5-30.7,110.9-30.7z M35.1-15.3h4.5
			c1.5,0,2.3-0.9,2.3-2.3v-4.5c0-1.5-0.9-2.3-2.3-2.3h-4.5c-1.5,0-2.4,0.9-2.4,2.3v4.5C32.7-16.2,33.5-15.3,35.1-15.3z M50.5-15.3
			h49.4c1.7,0,2.7-1,2.7-2.7v-3.9c0-1.7-1-2.7-2.7-2.7H50.5c-1.7,0-2.7,1-2.7,2.7v3.9C47.9-16.3,48.8-15.3,50.5-15.3z M110.9-15.3
			h4.5c1.5,0,2.3-0.9,2.3-2.3v-4.5c0-1.5-0.9-2.3-2.3-2.3h-4.5c-1.5,0-2.4,0.9-2.4,2.3v4.5C108.5-16.2,109.5-15.3,110.9-15.3z"/>
	</g>
	<g id="Medium-M" transform="matrix(1 0 0 1 1671.87 1126)">
		<path d="M28.5,4.3h92.3c10.5,0,16.1-5.5,16.1-15.9v-47.3c0-10.4-5.5-15.9-16.1-15.9H28.5c-10.6,0-16.1,5.5-16.1,15.9v47.3
			C12.5-1.2,17.9,4.3,28.5,4.3z M29.2-5.5c-4.5,0-7-2.3-7-7v-45.6c0-4.7,2.5-7.1,7-7.1h91.1c4.5,0,7,2.3,7,7.1v45.6c0,4.7-2.5,7-7,7
			H29.2z M33.8-46.3h4.5c1.4,0,2.3-0.9,2.3-2.3v-4.5c0-1.4-0.9-2.3-2.3-2.3h-4.5c-1.4,0-2.3,0.9-2.3,2.3v4.5
			C31.5-47.2,32.4-46.3,33.8-46.3z M49.3-46.3h4.5c1.4,0,2.3-0.9,2.3-2.3v-4.5c0-1.4-0.9-2.3-2.3-2.3h-4.5c-1.4,0-2.3,0.9-2.3,2.3
			v4.5C47-47.2,47.9-46.3,49.3-46.3z M64.6-46.3h4.5c1.4,0,2.3-0.9,2.3-2.3v-4.5c0-1.4-0.9-2.3-2.3-2.3h-4.5c-1.4,0-2.3,0.9-2.3,2.3
			v4.5C62.4-47.2,63.2-46.3,64.6-46.3z M80.1-46.3h4.5c1.4,0,2.3-0.9,2.3-2.3v-4.5c0-1.4-0.9-2.3-2.3-2.3h-4.5
			c-1.4,0-2.3,0.9-2.3,2.3v4.5C77.8-47.2,78.7-46.3,80.1-46.3z M95.6-46.3h4.3c1.4,0,2.3-0.9,2.3-2.3v-4.5c0-1.4-0.9-2.3-2.3-2.3
			h-4.3c-1.5,0-2.4,0.9-2.4,2.3v4.5C93.2-47.2,94.1-46.3,95.6-46.3z M110.9-46.3h4.5c1.4,0,2.3-0.9,2.3-2.3v-4.5
			c0-1.4-0.9-2.3-2.3-2.3h-4.5c-1.4,0-2.3,0.9-2.3,2.3v4.5C108.6-47.2,109.5-46.3,110.9-46.3z M33.8-30.8h4.5c1.4,0,2.3-0.9,2.3-2.3
			v-4.5c0-1.4-0.9-2.3-2.3-2.3h-4.5c-1.4,0-2.3,0.9-2.3,2.3v4.5C31.5-31.6,32.4-30.8,33.8-30.8z M49.3-30.8h4.5
			c1.4,0,2.3-0.9,2.3-2.3v-4.5c0-1.4-0.9-2.3-2.3-2.3h-4.5c-1.4,0-2.3,0.9-2.3,2.3v4.5C47-31.6,47.9-30.8,49.3-30.8z M64.6-30.8h4.5
			c1.4,0,2.3-0.9,2.3-2.3v-4.5c0-1.4-0.9-2.3-2.3-2.3h-4.5c-1.4,0-2.3,0.9-2.3,2.3v4.5C62.4-31.6,63.2-30.8,64.6-30.8z M80.1-30.8
			h4.5c1.4,0,2.3-0.9,2.3-2.3v-4.5c0-1.4-0.9-2.3-2.3-2.3h-4.5c-1.4,0-2.3,0.9-2.3,2.3v4.5C77.8-31.6,78.7-30.8,80.1-30.8z
			 M95.6-30.8h4.3c1.4,0,2.3-0.9,2.3-2.3v-4.5c0-1.4-0.9-2.3-2.3-2.3h-4.3c-1.5,0-2.4,0.9-2.4,2.3v4.5
			C93.2-31.6,94.1-30.8,95.6-30.8z M110.9-30.8h4.5c1.4,0,2.3-0.9,2.3-2.3v-4.5c0-1.4-0.9-2.3-2.3-2.3h-4.5c-1.4,0-2.3,0.9-2.3,2.3
			v4.5C108.6-31.6,109.5-30.8,110.9-30.8z M33.8-15.2h4.5c1.4,0,2.3-0.9,2.3-2.3V-22c0-1.4-0.9-2.3-2.3-2.3h-4.5
			c-1.4,0-2.3,0.9-2.3,2.3v4.5C31.5-16.1,32.4-15.2,33.8-15.2z M49.7-15.2h49.9c1.7,0,2.7-1,2.7-2.7v-3.7c0-1.7-1-2.7-2.7-2.7H49.7
			c-1.7,0-2.7,1-2.7,2.7v3.7C47-16.2,47.9-15.2,49.7-15.2z M110.9-15.2h4.5c1.4,0,2.3-0.9,2.3-2.3V-22c0-1.4-0.9-2.3-2.3-2.3h-4.5
			c-1.4,0-2.3,0.9-2.3,2.3v4.5C108.6-16.1,109.5-15.2,110.9-15.2z"/>
	</g>
	<g id="Regular-M" transform="matrix(1 0 0 1 1375.94 1126)">
		<path d="M27.8,3.3H120c10.2,0,15.3-5.1,15.3-15.1v-46.9c0-10-5.2-15.1-15.3-15.1H27.8c-10.3,0-15.3,5-15.3,15.1v46.9
			C12.5-1.8,17.5,3.3,27.8,3.3z M27.9-4.5c-4.9,0-7.6-2.6-7.6-7.7v-46c0-5.1,2.7-7.7,7.6-7.7h92c4.8,0,7.6,2.6,7.6,7.7v46
			c0,5.1-2.8,7.7-7.6,7.7H27.9z M32.3-46.6h4.5c1.4,0,2.2-0.8,2.2-2.1v-4.5c0-1.4-0.8-2.2-2.2-2.2h-4.5c-1.3,0-2.1,0.8-2.1,2.2v4.5
			C30.1-47.5,31-46.6,32.3-46.6z M48-46.6h4.5c1.3,0,2.1-0.8,2.1-2.1v-4.5c0-1.4-0.8-2.2-2.1-2.2H48c-1.4,0-2.2,0.8-2.2,2.2v4.5
			C45.8-47.5,46.6-46.6,48-46.6z M63.7-46.6h4.4c1.4,0,2.2-0.8,2.2-2.1v-4.5c0-1.4-0.8-2.2-2.2-2.2h-4.4c-1.4,0-2.2,0.8-2.2,2.2v4.5
			C61.5-47.5,62.4-46.6,63.7-46.6z M79.4-46.6h4.5c1.4,0,2.2-0.8,2.2-2.1v-4.5c0-1.4-0.8-2.2-2.2-2.2h-4.5c-1.3,0-2.1,0.8-2.1,2.2
			v4.5C77.2-47.5,78.1-46.6,79.4-46.6z M95.1-46.6h4.5c1.3,0,2.1-0.8,2.1-2.1v-4.5c0-1.4-0.8-2.2-2.1-2.2h-4.5
			c-1.4,0-2.2,0.8-2.2,2.2v4.5C92.9-47.5,93.8-46.6,95.1-46.6z M110.8-46.6h4.4c1.4,0,2.2-0.8,2.2-2.1v-4.5c0-1.4-0.8-2.2-2.2-2.2
			h-4.4c-1.4,0-2.2,0.8-2.2,2.2v4.5C108.6-47.5,109.5-46.6,110.8-46.6z M32.3-30.9h4.5c1.4,0,2.2-0.8,2.2-2.2v-4.4
			c0-1.4-0.8-2.2-2.2-2.2h-4.5c-1.3,0-2.1,0.8-2.1,2.2v4.4C30.1-31.7,31-30.9,32.3-30.9z M48-30.9h4.5c1.3,0,2.1-0.8,2.1-2.2v-4.4
			c0-1.4-0.8-2.2-2.1-2.2H48c-1.4,0-2.2,0.8-2.2,2.2v4.4C45.8-31.7,46.6-30.9,48-30.9z M63.7-30.9h4.4c1.4,0,2.2-0.8,2.2-2.2v-4.4
			c0-1.4-0.8-2.2-2.2-2.2h-4.4c-1.4,0-2.2,0.8-2.2,2.2v4.4C61.5-31.7,62.4-30.9,63.7-30.9z M79.4-30.9h4.5c1.4,0,2.2-0.8,2.2-2.2
			v-4.4c0-1.4-0.8-2.2-2.2-2.2h-4.5c-1.3,0-2.1,0.8-2.1,2.2v4.4C77.2-31.7,78.1-30.9,79.4-30.9z M95.1-30.9h4.5
			c1.3,0,2.1-0.8,2.1-2.2v-4.4c0-1.4-0.8-2.2-2.1-2.2h-4.5c-1.4,0-2.2,0.8-2.2,2.2v4.4C92.9-31.7,93.8-30.9,95.1-30.9z M110.8-30.9
			h4.4c1.4,0,2.2-0.8,2.2-2.2v-4.4c0-1.4-0.8-2.2-2.2-2.2h-4.4c-1.4,0-2.2,0.8-2.2,2.2v4.4C108.6-31.7,109.5-30.9,110.8-30.9z
			 M32.3-15.2h4.5c1.4,0,2.2-0.8,2.2-2.2v-4.5c0-1.3-0.8-2.1-2.2-2.1h-4.5c-1.3,0-2.1,0.8-2.1,2.1v4.5C30.1-16,31-15.2,32.3-15.2z
			 M48.5-15.2h50.6c1.7,0,2.6-1,2.6-2.7v-3.5c0-1.7-1-2.6-2.6-2.6H48.5c-1.7,0-2.7,1-2.7,2.6v3.5C45.8-16.2,46.8-15.2,48.5-15.2z
			 M110.8-15.2h4.4c1.4,0,2.2-0.8,2.2-2.2v-4.5c0-1.3-0.8-2.1-2.2-2.1h-4.4c-1.4,0-2.2,0.8-2.2,2.1v4.5
			C108.6-16,109.5-15.2,110.8-15.2z"/>
	</g>
	<g id="Light-M" transform="matrix(1 0 0 1 1080.01 1126)">
		<path d="M26.9,2.6h92.5c9.5,0,14.4-4.9,14.4-14.3v-47.2c0-9.4-4.9-14.3-14.4-14.3H26.9c-9.6,0-14.4,4.8-14.4,14.3v47.2
			C12.5-2.2,17.3,2.6,26.9,2.6z M27-3.5c-5.5,0-8.4-2.9-8.4-8.5v-46.6c0-5.6,3-8.5,8.4-8.5h92.3c5.4,0,8.5,2.9,8.5,8.5V-12
			c0,5.7-3.1,8.5-8.5,8.5H27z M31.6-46.9h4.1c1.4,0,2.1-0.8,2.1-2.1v-4.1c0-1.4-0.8-2.1-2.1-2.1h-4.1c-1.4,0-2.1,0.8-2.1,2.1v4.1
			C29.4-47.7,30.2-46.9,31.6-46.9z M47.3-46.9h4.2c1.3,0,2.1-0.8,2.1-2.1v-4.1c0-1.4-0.8-2.1-2.1-2.1h-4.2c-1.3,0-2.1,0.8-2.1,2.1
			v4.1C45.2-47.7,45.9-46.9,47.3-46.9z M63-46.9h4.2c1.3,0,2.1-0.8,2.1-2.1v-4.1c0-1.4-0.8-2.1-2.1-2.1H63c-1.4,0-2.1,0.8-2.1,2.1
			v4.1C60.8-47.7,61.6-46.9,63-46.9z M78.7-46.9h4.2c1.4,0,2.1-0.8,2.1-2.1v-4.1c0-1.4-0.8-2.1-2.1-2.1h-4.2c-1.3,0-2.1,0.8-2.1,2.1
			v4.1C76.6-47.7,77.3-46.9,78.7-46.9z M94.4-46.9h4.2c1.3,0,2.1-0.8,2.1-2.1v-4.1c0-1.4-0.8-2.1-2.1-2.1h-4.2
			c-1.3,0-2.1,0.8-2.1,2.1v4.1C92.3-47.7,93.1-46.9,94.4-46.9z M110.1-46.9h4.1c1.4,0,2.1-0.8,2.1-2.1v-4.1c0-1.4-0.8-2.1-2.1-2.1
			h-4.1c-1.4,0-2.1,0.8-2.1,2.1v4.1C108-47.7,108.7-46.9,110.1-46.9z M31.6-31.2h4.1c1.4,0,2.1-0.8,2.1-2.1v-4.2
			c0-1.3-0.8-2.1-2.1-2.1h-4.1c-1.4,0-2.1,0.8-2.1,2.1v4.2C29.4-32,30.2-31.2,31.6-31.2z M47.3-31.2h4.2c1.3,0,2.1-0.8,2.1-2.1v-4.2
			c0-1.3-0.8-2.1-2.1-2.1h-4.2c-1.3,0-2.1,0.8-2.1,2.1v4.2C45.2-32,45.9-31.2,47.3-31.2z M63-31.2h4.2c1.3,0,2.1-0.8,2.1-2.1v-4.2
			c0-1.3-0.8-2.1-2.1-2.1H63c-1.4,0-2.1,0.8-2.1,2.1v4.2C60.8-32,61.6-31.2,63-31.2z M78.7-31.2h4.2c1.4,0,2.1-0.8,2.1-2.1v-4.2
			c0-1.3-0.8-2.1-2.1-2.1h-4.2c-1.3,0-2.1,0.8-2.1,2.1v4.2C76.6-32,77.3-31.2,78.7-31.2z M94.4-31.2h4.2c1.3,0,2.1-0.8,2.1-2.1v-4.2
			c0-1.3-0.8-2.1-2.1-2.1h-4.2c-1.3,0-2.1,0.8-2.1,2.1v4.2C92.3-32,93.1-31.2,94.4-31.2z M110.1-31.2h4.1c1.4,0,2.1-0.8,2.1-2.1
			v-4.2c0-1.3-0.8-2.1-2.1-2.1h-4.1c-1.4,0-2.1,0.8-2.1,2.1v4.2C108-32,108.7-31.2,110.1-31.2z M31.6-15.5h4.1
			c1.4,0,2.1-0.8,2.1-2.1v-4.2c0-1.3-0.8-2.1-2.1-2.1h-4.1c-1.4,0-2.1,0.8-2.1,2.1v4.2C29.4-16.3,30.2-15.5,31.6-15.5z M47.6-15.5
			h50.6c1.6,0,2.4-0.9,2.4-2.4v-3.5c0-1.6-0.9-2.4-2.4-2.4H47.6c-1.6,0-2.4,0.9-2.4,2.4v3.5C45.2-16.4,46-15.5,47.6-15.5z
			 M110.1-15.5h4.1c1.4,0,2.1-0.8,2.1-2.1v-4.2c0-1.3-0.8-2.1-2.1-2.1h-4.1c-1.4,0-2.1,0.8-2.1,2.1v4.2
			C108-16.3,108.7-15.5,110.1-15.5z"/>
	</g>
	<g id="Thin-M" transform="matrix(1 0 0 1 784.352 1126)">
		<path d="M25.6,1.7h92.9c8.6,0,13.1-4.6,13.1-13.1v-47.7c0-8.5-4.5-13.1-13.1-13.1H25.6c-8.6,0-13.2,4.5-13.2,13.1v47.7
			C12.5-2.9,17,1.7,25.6,1.7z M25.7-2c-6.3,0-9.7-3.3-9.7-9.7v-47.3c0-6.4,3.3-9.7,9.7-9.7h92.7c6.2,0,9.7,3.3,9.7,9.7v47.3
			c0,6.4-3.5,9.7-9.7,9.7H25.7z M30.6-47.4h3.7c1.4,0,2.1-0.7,2.1-2v-3.7c0-1.3-0.7-2.1-2.1-2.1h-3.7c-1.3,0-2.1,0.7-2.1,2.1v3.7
			C28.6-48,29.3-47.4,30.6-47.4z M46.3-47.4H50c1.3,0,2.1-0.7,2.1-2v-3.7c0-1.3-0.7-2.1-2.1-2.1h-3.7c-1.3,0-2,0.7-2,2.1v3.7
			C44.3-48,45-47.4,46.3-47.4z M62-47.4h3.7c1.3,0,2-0.7,2-2v-3.7c0-1.3-0.7-2.1-2-2.1H62c-1.3,0-2.1,0.7-2.1,2.1v3.7
			C60-48,60.7-47.4,62-47.4z M77.7-47.4h3.7c1.3,0,2.1-0.7,2.1-2v-3.7c0-1.3-0.7-2.1-2.1-2.1h-3.7c-1.3,0-2.1,0.7-2.1,2.1v3.7
			C75.7-48,76.4-47.4,77.7-47.4z M93.4-47.4h3.7c1.3,0,2.1-0.7,2.1-2v-3.7c0-1.3-0.7-2.1-2.1-2.1h-3.7c-1.3,0-2,0.7-2,2.1v3.7
			C91.4-48,92.1-47.4,93.4-47.4z M109.1-47.4h3.7c1.3,0,2-0.7,2-2v-3.7c0-1.3-0.7-2.1-2-2.1h-3.7c-1.3,0-2.1,0.7-2.1,2.1v3.7
			C107.1-48,107.8-47.4,109.1-47.4z M30.6-31.6h3.7c1.4,0,2.1-0.7,2.1-2.1v-3.7c0-1.3-0.7-2.1-2.1-2.1h-3.7c-1.3,0-2.1,0.7-2.1,2.1
			v3.7C28.6-32.4,29.3-31.6,30.6-31.6z M46.3-31.6H50c1.3,0,2.1-0.7,2.1-2.1v-3.7c0-1.3-0.7-2.1-2.1-2.1h-3.7c-1.3,0-2,0.7-2,2.1
			v3.7C44.3-32.4,45-31.6,46.3-31.6z M62-31.6h3.7c1.3,0,2-0.7,2-2.1v-3.7c0-1.3-0.7-2.1-2-2.1H62c-1.3,0-2.1,0.7-2.1,2.1v3.7
			C60-32.4,60.7-31.6,62-31.6z M77.7-31.6h3.7c1.3,0,2.1-0.7,2.1-2.1v-3.7c0-1.3-0.7-2.1-2.1-2.1h-3.7c-1.3,0-2.1,0.7-2.1,2.1v3.7
			C75.7-32.4,76.4-31.6,77.7-31.6z M93.4-31.6h3.7c1.3,0,2.1-0.7,2.1-2.1v-3.7c0-1.3-0.7-2.1-2.1-2.1h-3.7c-1.3,0-2,0.7-2,2.1v3.7
			C91.4-32.4,92.1-31.6,93.4-31.6z M109.1-31.6h3.7c1.3,0,2-0.7,2-2.1v-3.7c0-1.3-0.7-2.1-2-2.1h-3.7c-1.3,0-2.1,0.7-2.1,2.1v3.7
			C107.1-32.4,107.8-31.6,109.1-31.6z M30.6-15.9h3.7c1.4,0,2.1-0.7,2.1-2.1v-3.7c0-1.3-0.7-2-2.1-2h-3.7c-1.3,0-2.1,0.7-2.1,2v3.7
			C28.6-16.7,29.3-15.9,30.6-15.9z M46.4-15.9H97c1.4,0,2.1-0.8,2.1-2.1v-3.5c0-1.4-0.8-2.1-2.1-2.1H46.4c-1.4,0-2.1,0.7-2.1,2.1
			v3.5C44.3-16.7,45-15.9,46.4-15.9z M109.1-15.9h3.7c1.3,0,2-0.7,2-2.1v-3.7c0-1.3-0.7-2-2-2h-3.7c-1.3,0-2.1,0.7-2.1,2v3.7
			C107.1-16.7,107.8-15.9,109.1-15.9z"/>
	</g>
	<g id="Ultralight-M" transform="matrix(1 0 0 1 488.153 1126)">
		<path d="M25,1.2h93.1c8.2,0,12.5-4.5,12.5-12.5v-47.9c0-8.1-4.3-12.5-12.5-12.5H25c-8.2,0-12.5,4.3-12.5,12.5v47.9
			C12.5-3.2,16.8,1.2,25,1.2z M25.1-1.2c-6.7,0-10.3-3.5-10.3-10.3v-47.6c0-6.8,3.5-10.3,10.3-10.3H118c6.5,0,10.3,3.5,10.3,10.3
			v47.6c0,6.8-3.8,10.3-10.3,10.3H25.1z M30.1-47.6h3.5c1.3,0,2-0.7,2-2V-53c0-1.3-0.7-2-2-2h-3.5c-1.3,0-2,0.7-2,2v3.5
			C28.1-48.2,28.8-47.6,30.1-47.6z M45.8-47.6h3.5c1.3,0,2-0.7,2-2V-53c0-1.3-0.7-2-2-2h-3.5c-1.3,0-2,0.7-2,2v3.5
			C43.8-48.2,44.5-47.6,45.8-47.6z M61.5-47.6H65c1.3,0,2-0.7,2-2V-53c0-1.3-0.7-2-2-2h-3.5c-1.3,0-2,0.7-2,2v3.5
			C59.5-48.2,60.2-47.6,61.5-47.6z M77.2-47.6h3.5c1.3,0,2-0.7,2-2V-53c0-1.3-0.7-2-2-2h-3.5c-1.3,0-2,0.7-2,2v3.5
			C75.2-48.2,75.9-47.6,77.2-47.6z M92.9-47.6h3.5c1.3,0,2-0.7,2-2V-53c0-1.3-0.7-2-2-2h-3.5c-1.3,0-2,0.7-2,2v3.5
			C91-48.2,91.7-47.6,92.9-47.6z M108.6-47.6h3.5c1.3,0,2-0.7,2-2V-53c0-1.3-0.7-2-2-2h-3.5c-1.3,0-2,0.7-2,2v3.5
			C106.6-48.2,107.3-47.6,108.6-47.6z M30.1-31.8h3.5c1.3,0,2-0.7,2-2v-3.5c0-1.3-0.7-2-2-2h-3.5c-1.3,0-2,0.7-2,2v3.5
			C28.1-32.5,28.8-31.8,30.1-31.8z M45.8-31.8h3.5c1.3,0,2-0.7,2-2v-3.5c0-1.3-0.7-2-2-2h-3.5c-1.3,0-2,0.7-2,2v3.5
			C43.8-32.5,44.5-31.8,45.8-31.8z M61.5-31.8H65c1.3,0,2-0.7,2-2v-3.5c0-1.3-0.7-2-2-2h-3.5c-1.3,0-2,0.7-2,2v3.5
			C59.5-32.5,60.2-31.8,61.5-31.8z M77.2-31.8h3.5c1.3,0,2-0.7,2-2v-3.5c0-1.3-0.7-2-2-2h-3.5c-1.3,0-2,0.7-2,2v3.5
			C75.2-32.5,75.9-31.8,77.2-31.8z M92.9-31.8h3.5c1.3,0,2-0.7,2-2v-3.5c0-1.3-0.7-2-2-2h-3.5c-1.3,0-2,0.7-2,2v3.5
			C91-32.5,91.7-31.8,92.9-31.8z M108.6-31.8h3.5c1.3,0,2-0.7,2-2v-3.5c0-1.3-0.7-2-2-2h-3.5c-1.3,0-2,0.7-2,2v3.5
			C106.6-32.5,107.3-31.8,108.6-31.8z M30.1-16.2h3.5c1.3,0,2-0.7,2-2v-3.5c0-1.3-0.7-2-2-2h-3.5c-1.3,0-2,0.7-2,2v3.5
			C28.1-16.8,28.8-16.2,30.1-16.2z M45.8-16.2h50.6c1.3,0,2-0.7,2-2v-3.5c0-1.3-0.7-2-2-2H45.8c-1.3,0-2,0.7-2,2v3.5
			C43.8-16.8,44.5-16.2,45.8-16.2z M108.6-16.2h3.5c1.3,0,2-0.7,2-2v-3.5c0-1.3-0.7-2-2-2h-3.5c-1.3,0-2,0.7-2,2v3.5
			C106.6-16.8,107.3-16.2,108.6-16.2z"/>
	</g>
	<g id="Black-S" transform="matrix(1 0 0 1 2872.07 696)">
		<path d="M25-0.8h72.7c9.6,0,15.2-5.7,15.2-15.2v-38.5c0-9.6-5.7-15.2-15.2-15.2H25c-9.6,0-15.2,5.7-15.2,15.2v38.5
			C9.8-6.5,15.4-0.8,25-0.8z M27.2-15c-2.2,0-3.3-0.9-3.3-3.3v-34c0-2.4,1.1-3.3,3.3-3.3h68.2c2.2,0,3.3,0.9,3.3,3.3v34
			c0,2.4-1.1,3.3-3.3,3.3H27.2z M31.9-42.8h3.6c1.4,0,2.1-0.8,2.1-2.1v-3.6c0-1.4-0.8-2.1-2.1-2.1h-3.6c-1.4,0-2.1,0.8-2.1,2.1v3.6
			C29.8-43.6,30.6-42.8,31.9-42.8z M43-42.8h3.6c1.4,0,2.1-0.8,2.1-2.1v-3.6c0-1.4-0.8-2.1-2.1-2.1H43c-1.4,0-2.1,0.8-2.1,2.1v3.6
			C40.8-43.6,41.6-42.8,43-42.8z M54-42.8h3.6c1.4,0,2.1-0.8,2.1-2.1v-3.6c0-1.4-0.8-2.1-2.1-2.1H54c-1.4,0-2.1,0.8-2.1,2.1v3.6
			C51.9-43.6,52.6-42.8,54-42.8z M65-42.8h3.6c1.4,0,2.1-0.8,2.1-2.1v-3.6c0-1.4-0.8-2.1-2.1-2.1H65c-1.4,0-2.1,0.8-2.1,2.1v3.6
			C62.9-43.6,63.7-42.8,65-42.8z M76.6-42.8h3.1c1.4,0,2.1-0.8,2.1-2.1v-3.6c0-1.4-0.8-2.1-2.1-2.1h-3.1c-1.7,0-2.6,0.8-2.6,2.1v3.6
			C73.9-43.6,74.9-42.8,76.6-42.8z M87.1-42.8h3.6c1.4,0,2.1-0.8,2.1-2.1v-3.6c0-1.4-0.8-2.1-2.1-2.1h-3.6c-1.4,0-2.1,0.8-2.1,2.1
			v3.6C85-43.6,85.7-42.8,87.1-42.8z M31.9-31.2h3.6c1.4,0,2.1-0.8,2.1-2.1V-37c0-1.4-0.8-2.1-2.1-2.1h-3.6c-1.4,0-2.1,0.8-2.1,2.1
			v3.6C29.8-32,30.6-31.2,31.9-31.2z M43-31.2h3.6c1.4,0,2.1-0.8,2.1-2.1V-37c0-1.4-0.8-2.1-2.1-2.1H43c-1.4,0-2.1,0.8-2.1,2.1v3.6
			C40.8-32,41.6-31.2,43-31.2z M54-31.2h3.6c1.4,0,2.1-0.8,2.1-2.1V-37c0-1.4-0.8-2.1-2.1-2.1H54c-1.4,0-2.1,0.8-2.1,2.1v3.6
			C51.9-32,52.6-31.2,54-31.2z M65-31.2h3.6c1.4,0,2.1-0.8,2.1-2.1V-37c0-1.4-0.8-2.1-2.1-2.1H65c-1.4,0-2.1,0.8-2.1,2.1v3.6
			C62.9-32,63.7-31.2,65-31.2z M76.6-31.2h3.1c1.4,0,2.1-0.8,2.1-2.1V-37c0-1.4-0.8-2.1-2.1-2.1h-3.1c-1.7,0-2.6,0.8-2.6,2.1v3.6
			C73.9-32,74.9-31.2,76.6-31.2z M87.1-31.2h3.6c1.4,0,2.1-0.8,2.1-2.1V-37c0-1.4-0.8-2.1-2.1-2.1h-3.6c-1.4,0-2.1,0.8-2.1,2.1v3.6
			C85-32,85.7-31.2,87.1-31.2z M31.9-19.7h3.6c1.4,0,2.1-0.8,2.1-2.1v-3.6c0-1.4-0.8-2.1-2.1-2.1h-3.6c-1.4,0-2.1,0.8-2.1,2.1v3.6
			C29.8-20.5,30.6-19.7,31.9-19.7z M43-19.7h36.7c1.4,0,2.1-0.8,2.1-2.1v-3.6c0-1.4-0.8-2.1-2.1-2.1H43c-1.4,0-2.1,0.8-2.1,2.1v3.6
			C40.8-20.5,41.6-19.7,43-19.7z M87.1-19.7h3.6c1.4,0,2.1-0.8,2.1-2.1v-3.6c0-1.4-0.8-2.1-2.1-2.1h-3.6c-1.4,0-2.1,0.8-2.1,2.1v3.6
			C85-20.5,85.7-19.7,87.1-19.7z"/>
	</g>
	<g id="Heavy-S" transform="matrix(1 0 0 1 2576.07 696)">
		<path d="M24.4-1.8h72.5c9.3,0,14.6-5.3,14.6-14.5v-38c0-9.3-5.3-14.6-14.6-14.6H24.4c-9.3,0-14.6,5.3-14.6,14.6v38
			C9.8-7,15-1.8,24.4-1.8z M26.1-14.2c-2.5,0-3.8-1.1-3.8-3.9v-34.4c0-2.7,1.3-3.9,3.8-3.9h69c2.5,0,3.9,1.1,3.9,3.9v34.4
			c0,2.7-1.3,3.9-3.9,3.9H26.1z M30.5-43.1H34c1.3,0,2.1-0.7,2.1-2.1v-3.6c0-1.3-0.7-2.1-2.1-2.1h-3.6c-1.3,0-2.1,0.7-2.1,2.1v3.6
			C28.4-43.8,29.2-43.1,30.5-43.1z M41.8-43.1h3.6c1.3,0,2.1-0.7,2.1-2.1v-3.6c0-1.3-0.7-2.1-2.1-2.1h-3.6c-1.3,0-2.1,0.7-2.1,2.1
			v3.6C39.7-43.8,40.5-43.1,41.8-43.1z M53.1-43.1h3.6c1.3,0,2.1-0.7,2.1-2.1v-3.6c0-1.3-0.8-2.1-2.1-2.1h-3.6
			c-1.3,0-2.1,0.7-2.1,2.1v3.6C51.1-43.8,51.8-43.1,53.1-43.1z M64.5-43.1h3.6c1.3,0,2.1-0.7,2.1-2.1v-3.6c0-1.3-0.8-2.1-2.1-2.1
			h-3.6c-1.3,0-2.1,0.7-2.1,2.1v3.6C62.4-43.8,63.2-43.1,64.5-43.1z M76.2-43.1h3.2c1.3,0,2.1-0.7,2.1-2.1v-3.6
			c0-1.3-0.8-2.1-2.1-2.1h-3.2c-1.5,0-2.4,0.7-2.4,2.1v3.6C73.7-43.8,74.7-43.1,76.2-43.1z M87.1-43.1h3.6c1.3,0,2.1-0.7,2.1-2.1
			v-3.6c0-1.3-0.8-2.1-2.1-2.1h-3.6c-1.3,0-2.1,0.7-2.1,2.1v3.6C85.1-43.8,85.8-43.1,87.1-43.1z M30.5-31.3H34
			c1.3,0,2.1-0.8,2.1-2.1V-37c0-1.3-0.7-2.1-2.1-2.1h-3.6c-1.3,0-2.1,0.7-2.1,2.1v3.6C28.4-32.1,29.2-31.3,30.5-31.3z M41.8-31.3
			h3.6c1.3,0,2.1-0.8,2.1-2.1V-37c0-1.3-0.7-2.1-2.1-2.1h-3.6c-1.3,0-2.1,0.7-2.1,2.1v3.6C39.7-32.1,40.5-31.3,41.8-31.3z
			 M53.1-31.3h3.6c1.3,0,2.1-0.8,2.1-2.1V-37c0-1.3-0.8-2.1-2.1-2.1h-3.6c-1.3,0-2.1,0.7-2.1,2.1v3.6C51.1-32.1,51.8-31.3,53.1-31.3
			z M64.5-31.3h3.6c1.3,0,2.1-0.8,2.1-2.1V-37c0-1.3-0.8-2.1-2.1-2.1h-3.6c-1.3,0-2.1,0.7-2.1,2.1v3.6
			C62.4-32.1,63.2-31.3,64.5-31.3z M76.2-31.3h3.2c1.3,0,2.1-0.8,2.1-2.1V-37c0-1.3-0.8-2.1-2.1-2.1h-3.2c-1.5,0-2.4,0.7-2.4,2.1
			v3.6C73.7-32.1,74.7-31.3,76.2-31.3z M87.1-31.3h3.6c1.3,0,2.1-0.8,2.1-2.1V-37c0-1.3-0.8-2.1-2.1-2.1h-3.6
			c-1.3,0-2.1,0.7-2.1,2.1v3.6C85.1-32.1,85.8-31.3,87.1-31.3z M30.5-19.6H34c1.3,0,2.1-0.8,2.1-2.1v-3.7c0-1.3-0.7-2.1-2.1-2.1
			h-3.6c-1.3,0-2.1,0.8-2.1,2.1v3.7C28.4-20.4,29.2-19.6,30.5-19.6z M41.9-19.6h37.4c1.4,0,2.2-0.8,2.2-2.2v-3.4
			c0-1.4-0.8-2.2-2.2-2.2H41.9c-1.4,0-2.1,0.8-2.1,2.2v3.4C39.7-20.5,40.5-19.6,41.9-19.6z M87.1-19.6h3.6c1.3,0,2.1-0.8,2.1-2.1
			v-3.7c0-1.3-0.8-2.1-2.1-2.1h-3.6c-1.3,0-2.1,0.8-2.1,2.1v3.7C85.1-20.4,85.8-19.6,87.1-19.6z"/>
	</g>
	<g id="Bold-S" transform="matrix(1 0 0 1 2280.16 696)">
		<path d="M23.6-2.8H96c8.9,0,13.9-4.8,13.9-13.7v-37.5c0-8.9-4.9-13.7-13.9-13.7H23.6c-9,0-13.9,4.8-13.9,13.7v37.5
			C9.8-7.6,14.6-2.8,23.6-2.8z M24.8-13.4c-2.9,0-4.4-1.4-4.4-4.4v-34.9c0-3.1,1.6-4.4,4.4-4.4h70c2.9,0,4.4,1.4,4.4,4.4v34.9
			c0,3.1-1.5,4.4-4.4,4.4H24.8z M28.8-43.4h3.6c1.2,0,2-0.7,2-1.9V-49c0-1.2-0.7-2-2-2h-3.6c-1.2,0-2,0.7-2,2v3.7
			C26.9-44.1,27.6-43.4,28.8-43.4z M40.5-43.4h3.6c1.2,0,2-0.7,2-1.9V-49c0-1.2-0.7-2-2-2h-3.6c-1.2,0-2,0.7-2,2v3.7
			C38.5-44.1,39.3-43.4,40.5-43.4z M52.1-43.4h3.6c1.2,0,2-0.7,2-1.9V-49c0-1.2-0.7-2-2-2h-3.6c-1.2,0-2,0.7-2,2v3.7
			C50.2-44.1,50.9-43.4,52.1-43.4z M63.8-43.4h3.6c1.2,0,2-0.7,2-1.9V-49c0-1.2-0.7-2-2-2h-3.6c-1.2,0-2,0.7-2,2v3.7
			C61.9-44.1,62.6-43.4,63.8-43.4z M75.7-43.4h3.4c1.2,0,2-0.7,2-1.9V-49c0-1.2-0.7-2-2-2h-3.4c-1.4,0-2.2,0.7-2.2,2v3.7
			C73.5-44.1,74.4-43.4,75.7-43.4z M87.2-43.4h3.6c1.2,0,2-0.7,2-1.9V-49c0-1.2-0.7-2-2-2h-3.6c-1.2,0-2,0.7-2,2v3.7
			C85.2-44.1,85.9-43.4,87.2-43.4z M28.8-31.5h3.6c1.2,0,2-0.7,2-1.9v-3.7c0-1.2-0.7-2-2-2h-3.6c-1.2,0-2,0.7-2,2v3.7
			C26.9-32.2,27.6-31.5,28.8-31.5z M40.5-31.5h3.6c1.2,0,2-0.7,2-1.9v-3.7c0-1.2-0.7-2-2-2h-3.6c-1.2,0-2,0.7-2,2v3.7
			C38.5-32.2,39.3-31.5,40.5-31.5z M52.1-31.5h3.6c1.2,0,2-0.7,2-1.9v-3.7c0-1.2-0.7-2-2-2h-3.6c-1.2,0-2,0.7-2,2v3.7
			C50.2-32.2,50.9-31.5,52.1-31.5z M63.8-31.5h3.6c1.2,0,2-0.7,2-1.9v-3.7c0-1.2-0.7-2-2-2h-3.6c-1.2,0-2,0.7-2,2v3.7
			C61.9-32.2,62.6-31.5,63.8-31.5z M75.7-31.5h3.4c1.2,0,2-0.7,2-1.9v-3.7c0-1.2-0.7-2-2-2h-3.4c-1.4,0-2.2,0.7-2.2,2v3.7
			C73.5-32.2,74.4-31.5,75.7-31.5z M87.2-31.5h3.6c1.2,0,2-0.7,2-1.9v-3.7c0-1.2-0.7-2-2-2h-3.6c-1.2,0-2,0.7-2,2v3.7
			C85.2-32.2,85.9-31.5,87.2-31.5z M28.8-19.6h3.6c1.2,0,2-0.7,2-1.9v-3.7c0-1.2-0.7-2-2-2h-3.6c-1.2,0-2,0.7-2,2v3.7
			C26.9-20.3,27.6-19.6,28.8-19.6z M40.7-19.6h38.1c1.4,0,2.2-0.8,2.2-2.1v-3.2c0-1.4-0.8-2.2-2.2-2.2H40.7c-1.4,0-2.2,0.8-2.2,2.2
			v3.2C38.5-20.4,39.3-19.6,40.7-19.6z M87.2-19.6h3.6c1.2,0,2-0.7,2-1.9v-3.7c0-1.2-0.7-2-2-2h-3.6c-1.2,0-2,0.7-2,2v3.7
			C85.2-20.3,85.9-19.6,87.2-19.6z"/>
	</g>
	<g id="Semibold-S" transform="matrix(1 0 0 1 1984.01 696)">
		<path d="M23.1-3.5h72.3c8.7,0,13.3-4.6,13.3-13.2v-37.2c0-8.6-4.6-13.2-13.3-13.2H23.1c-8.7,0-13.3,4.6-13.3,13.2v37.2
			C9.8-8.1,14.4-3.5,23.1-3.5z M23.9-12.8c-3.1,0-4.8-1.6-4.8-4.9v-35.2c0-3.3,1.7-4.9,4.8-4.9h70.8c3.1,0,4.8,1.6,4.8,4.9v35.2
			c0,3.3-1.7,4.9-4.8,4.9H23.9z M27.6-43.6h3.7c1.2,0,1.9-0.7,1.9-1.9v-3.7c0-1.2-0.7-1.9-1.9-1.9h-3.7c-1.1,0-1.9,0.7-1.9,1.9v3.7
			C25.8-44.3,26.5-43.6,27.6-43.6z M39.6-43.6h3.7c1.1,0,1.9-0.7,1.9-1.9v-3.7c0-1.2-0.7-1.9-1.9-1.9h-3.7c-1.2,0-1.9,0.7-1.9,1.9
			v3.7C37.7-44.3,38.4-43.6,39.6-43.6z M51.5-43.6h3.6c1.2,0,1.9-0.7,1.9-1.9v-3.7c0-1.2-0.7-1.9-1.9-1.9h-3.6
			c-1.2,0-1.9,0.7-1.9,1.9v3.7C49.6-44.3,50.3-43.6,51.5-43.6z M63.4-43.6H67c1.2,0,1.9-0.7,1.9-1.9v-3.7c0-1.2-0.7-1.9-1.9-1.9
			h-3.6c-1.2,0-1.9,0.7-1.9,1.9v3.7C61.5-44.3,62.2-43.6,63.4-43.6z M75.4-43.6h3.5c1.2,0,1.9-0.7,1.9-1.9v-3.7
			c0-1.2-0.7-1.9-1.9-1.9h-3.5c-1.3,0-2.1,0.7-2.1,1.9v3.7C73.4-44.3,74.2-43.6,75.4-43.6z M87.2-43.6h3.6c1.2,0,1.9-0.7,1.9-1.9
			v-3.7c0-1.2-0.7-1.9-1.9-1.9h-3.6c-1.2,0-1.9,0.7-1.9,1.9v3.7C85.3-44.3,86-43.6,87.2-43.6z M27.6-31.5h3.7c1.2,0,1.9-0.7,1.9-1.9
			v-3.6c0-1.2-0.7-1.9-1.9-1.9h-3.7c-1.1,0-1.9,0.7-1.9,1.9v3.6C25.8-32.3,26.5-31.5,27.6-31.5z M39.6-31.5h3.7
			c1.1,0,1.9-0.7,1.9-1.9v-3.6c0-1.2-0.7-1.9-1.9-1.9h-3.7c-1.2,0-1.9,0.7-1.9,1.9v3.6C37.7-32.3,38.4-31.5,39.6-31.5z M51.5-31.5
			h3.6c1.2,0,1.9-0.7,1.9-1.9v-3.6c0-1.2-0.7-1.9-1.9-1.9h-3.6c-1.2,0-1.9,0.7-1.9,1.9v3.6C49.6-32.3,50.3-31.5,51.5-31.5z
			 M63.4-31.5H67c1.2,0,1.9-0.7,1.9-1.9v-3.6c0-1.2-0.7-1.9-1.9-1.9h-3.6c-1.2,0-1.9,0.7-1.9,1.9v3.6C61.5-32.3,62.2-31.5,63.4-31.5
			z M75.4-31.5h3.5c1.2,0,1.9-0.7,1.9-1.9v-3.6c0-1.2-0.7-1.9-1.9-1.9h-3.5c-1.3,0-2.1,0.7-2.1,1.9v3.6
			C73.4-32.3,74.2-31.5,75.4-31.5z M87.2-31.5h3.6c1.2,0,1.9-0.7,1.9-1.9v-3.6c0-1.2-0.7-1.9-1.9-1.9h-3.6c-1.2,0-1.9,0.7-1.9,1.9
			v3.6C85.3-32.3,86-31.5,87.2-31.5z M27.6-19.5h3.7c1.2,0,1.9-0.7,1.9-1.9V-25c0-1.2-0.7-1.9-1.9-1.9h-3.7c-1.1,0-1.9,0.7-1.9,1.9
			v3.6C25.8-20.2,26.5-19.5,27.6-19.5z M39.9-19.5h38.7c1.4,0,2.2-0.8,2.2-2.2v-3c0-1.4-0.8-2.2-2.2-2.2H39.9
			c-1.4,0-2.2,0.8-2.2,2.2v3C37.7-20.3,38.5-19.5,39.9-19.5z M87.2-19.5h3.6c1.2,0,1.9-0.7,1.9-1.9V-25c0-1.2-0.7-1.9-1.9-1.9h-3.6
			c-1.2,0-1.9,0.7-1.9,1.9v3.6C85.3-20.2,86-19.5,87.2-19.5z"/>
	</g>
	<g id="Medium-S" transform="matrix(1 0 0 1 1687.72 696)">
		<path d="M22.7-4h72.2c8.5,0,13-4.3,13-12.8v-36.9c0-8.4-4.4-12.8-13-12.8H22.7c-8.5,0-12.9,4.3-12.9,12.8v36.9
			C9.8-8.3,14.2-4,22.7-4z M23.2-12.3c-3.3,0-5.1-1.8-5.1-5.2V-53c0-3.5,1.9-5.2,5.1-5.2h71.2c3.3,0,5.1,1.7,5.1,5.2v35.5
			c0,3.5-1.9,5.2-5.1,5.2H23.2z M26.8-43.8h3.6c1.1,0,1.9-0.7,1.9-1.8v-3.7c0-1.1-0.7-1.8-1.9-1.8h-3.6c-1.1,0-1.8,0.7-1.8,1.8v3.7
			C25-44.5,25.7-43.8,26.8-43.8z M38.9-43.8h3.7c1.1,0,1.8-0.7,1.8-1.8v-3.7c0-1.1-0.7-1.8-1.8-1.8h-3.7c-1.1,0-1.8,0.7-1.8,1.8v3.7
			C37.1-44.5,37.7-43.8,38.9-43.8z M50.9-43.8h3.7c1.1,0,1.8-0.7,1.8-1.8v-3.7c0-1.1-0.7-1.8-1.8-1.8h-3.7c-1.1,0-1.8,0.7-1.8,1.8
			v3.7C49.1-44.5,49.8-43.8,50.9-43.8z M63-43.8h3.6c1.1,0,1.9-0.7,1.9-1.8v-3.7c0-1.1-0.7-1.8-1.9-1.8H63c-1.1,0-1.9,0.7-1.9,1.8
			v3.7C61.2-44.5,61.9-43.8,63-43.8z M75.2-43.8h3.6c1.1,0,1.8-0.7,1.8-1.8v-3.7c0-1.1-0.7-1.8-1.8-1.8h-3.6c-1.2,0-1.9,0.7-1.9,1.8
			v3.7C73.3-44.5,74-43.8,75.2-43.8z M87.2-43.8h3.7c1.1,0,1.8-0.7,1.8-1.8v-3.7c0-1.1-0.7-1.8-1.8-1.8h-3.7c-1.1,0-1.8,0.7-1.8,1.8
			v3.7C85.4-44.5,86-43.8,87.2-43.8z M26.8-31.6h3.6c1.1,0,1.9-0.7,1.9-1.9v-3.6c0-1.1-0.7-1.9-1.9-1.9h-3.6c-1.1,0-1.8,0.7-1.8,1.9
			v3.6C25-32.3,25.7-31.6,26.8-31.6z M38.9-31.6h3.7c1.1,0,1.8-0.7,1.8-1.9v-3.6c0-1.1-0.7-1.9-1.8-1.9h-3.7c-1.1,0-1.8,0.7-1.8,1.9
			v3.6C37.1-32.3,37.7-31.6,38.9-31.6z M50.9-31.6h3.7c1.1,0,1.8-0.7,1.8-1.9v-3.6c0-1.1-0.7-1.9-1.8-1.9h-3.7
			c-1.1,0-1.8,0.7-1.8,1.9v3.6C49.1-32.3,49.8-31.6,50.9-31.6z M63-31.6h3.6c1.1,0,1.9-0.7,1.9-1.9v-3.6c0-1.1-0.7-1.9-1.9-1.9H63
			c-1.1,0-1.9,0.7-1.9,1.9v3.6C61.2-32.3,61.9-31.6,63-31.6z M75.2-31.6h3.6c1.1,0,1.8-0.7,1.8-1.9v-3.6c0-1.1-0.7-1.9-1.8-1.9h-3.6
			c-1.2,0-1.9,0.7-1.9,1.9v3.6C73.3-32.3,74-31.6,75.2-31.6z M87.2-31.6h3.7c1.1,0,1.8-0.7,1.8-1.9v-3.6c0-1.1-0.7-1.9-1.8-1.9h-3.7
			c-1.1,0-1.8,0.7-1.8,1.9v3.6C85.4-32.3,86-31.6,87.2-31.6z M26.8-19.4h3.6c1.1,0,1.9-0.7,1.9-1.9v-3.6c0-1.1-0.7-1.9-1.9-1.9h-3.6
			c-1.1,0-1.8,0.7-1.8,1.9v3.6C25-20.1,25.7-19.4,26.8-19.4z M39.3-19.4h39.1c1.4,0,2.2-0.8,2.2-2.2v-2.9c0-1.4-0.8-2.2-2.2-2.2
			H39.3c-1.4,0-2.2,0.8-2.2,2.2v2.9C37.1-20.3,37.8-19.4,39.3-19.4z M87.2-19.4h3.7c1.1,0,1.8-0.7,1.8-1.9v-3.6
			c0-1.1-0.7-1.9-1.8-1.9h-3.7c-1.1,0-1.8,0.7-1.8,1.9v3.6C85.4-20.1,86-19.4,87.2-19.4z"/>
	</g>
	<g id="Regular-S" transform="matrix(1 0 0 1 1391.57 696)">
		<path d="M22.2-4.7h72.1c8.3,0,12.5-4.1,12.5-12.3v-36.6c0-8.2-4.2-12.3-12.5-12.3H22.2c-8.3,0-12.5,4.1-12.5,12.3V-17
			C9.8-8.8,13.9-4.7,22.2-4.7z M22.3-11.7c-3.5,0-5.5-1.9-5.5-5.6v-35.8c0-3.7,2-5.6,5.5-5.6h71.9c3.5,0,5.5,1.9,5.5,5.6v35.8
			c0,3.7-2,5.6-5.5,5.6H22.3z M25.7-44h3.7c1.1,0,1.7-0.7,1.7-1.8v-3.7c0-1.1-0.6-1.8-1.7-1.8h-3.7c-1.1,0-1.8,0.7-1.8,1.8v3.7
			C23.9-44.7,24.6-44,25.7-44z M38-44h3.7c1.1,0,1.7-0.7,1.7-1.8v-3.7c0-1.1-0.6-1.8-1.7-1.8H38c-1.1,0-1.8,0.7-1.8,1.8v3.7
			C36.2-44.7,36.9-44,38-44z M50.3-44H54c1.1,0,1.7-0.7,1.7-1.8v-3.7c0-1.1-0.6-1.8-1.7-1.8h-3.7c-1.1,0-1.8,0.7-1.8,1.8v3.7
			C48.5-44.7,49.2-44,50.3-44z M62.6-44h3.7c1.1,0,1.7-0.7,1.7-1.8v-3.7c0-1.1-0.6-1.8-1.7-1.8h-3.7c-1.1,0-1.8,0.7-1.8,1.8v3.7
			C60.8-44.7,61.5-44,62.6-44z M74.9-44h3.7c1.1,0,1.7-0.7,1.7-1.8v-3.7c0-1.1-0.6-1.8-1.7-1.8h-3.7c-1.1,0-1.8,0.7-1.8,1.8v3.7
			C73.1-44.7,73.8-44,74.9-44z M87.2-44h3.7c1.1,0,1.7-0.7,1.7-1.8v-3.7c0-1.1-0.6-1.8-1.7-1.8h-3.7c-1.1,0-1.8,0.7-1.8,1.8v3.7
			C85.4-44.7,86.1-44,87.2-44z M25.7-31.7h3.7c1.1,0,1.7-0.7,1.7-1.8v-3.7c0-1.1-0.6-1.8-1.7-1.8h-3.7c-1.1,0-1.8,0.7-1.8,1.8v3.7
			C23.9-32.4,24.6-31.7,25.7-31.7z M38-31.7h3.7c1.1,0,1.7-0.7,1.7-1.8v-3.7c0-1.1-0.6-1.8-1.7-1.8H38c-1.1,0-1.8,0.7-1.8,1.8v3.7
			C36.2-32.4,36.9-31.7,38-31.7z M50.3-31.7H54c1.1,0,1.7-0.7,1.7-1.8v-3.7c0-1.1-0.6-1.8-1.7-1.8h-3.7c-1.1,0-1.8,0.7-1.8,1.8v3.7
			C48.5-32.4,49.2-31.7,50.3-31.7z M62.6-31.7h3.7c1.1,0,1.7-0.7,1.7-1.8v-3.7c0-1.1-0.6-1.8-1.7-1.8h-3.7c-1.1,0-1.8,0.7-1.8,1.8
			v3.7C60.8-32.4,61.5-31.7,62.6-31.7z M74.9-31.7h3.7c1.1,0,1.7-0.7,1.7-1.8v-3.7c0-1.1-0.6-1.8-1.7-1.8h-3.7
			c-1.1,0-1.8,0.7-1.8,1.8v3.7C73.1-32.4,73.8-31.7,74.9-31.7z M87.2-31.7h3.7c1.1,0,1.7-0.7,1.7-1.8v-3.7c0-1.1-0.6-1.8-1.7-1.8
			h-3.7c-1.1,0-1.8,0.7-1.8,1.8v3.7C85.4-32.4,86.1-31.7,87.2-31.7z M25.7-19.4h3.7c1.1,0,1.7-0.7,1.7-1.8v-3.7
			c0-1.1-0.6-1.8-1.7-1.8h-3.7c-1.1,0-1.8,0.7-1.8,1.8v3.7C23.9-20.1,24.6-19.4,25.7-19.4z M38.4-19.4h39.6c1.4,0,2.2-0.8,2.2-2.2
			v-2.7c0-1.4-0.8-2.2-2.2-2.2H38.4c-1.4,0-2.2,0.8-2.2,2.2v2.7C36.2-20.2,37.1-19.4,38.4-19.4z M87.2-19.4h3.7
			c1.1,0,1.7-0.7,1.7-1.8v-3.7c0-1.1-0.6-1.8-1.7-1.8h-3.7c-1.1,0-1.8,0.7-1.8,1.8v3.7C85.4-20.1,86.1-19.4,87.2-19.4z"/>
	</g>
	<g id="Light-S" transform="matrix(1 0 0 1 1095.54 696)">
		<path d="M21.4-5.3h72.4c7.7,0,11.6-3.9,11.6-11.5v-36.9c0-7.6-4-11.5-11.6-11.5H21.4c-7.7,0-11.6,3.9-11.6,11.5v36.9
			C9.8-9.2,13.7-5.3,21.4-5.3z M21.5-10.7c-4.1,0-6.3-2.2-6.3-6.4v-36.3c0-4.2,2.2-6.3,6.3-6.3h72.2c4,0,6.3,2.1,6.3,6.3v36.3
			c0,4.2-2.3,6.4-6.3,6.4H21.5z M25-44.3h3.4c1.1,0,1.7-0.6,1.7-1.7v-3.4c0-1.1-0.6-1.7-1.7-1.7H25c-1,0-1.7,0.6-1.7,1.7v3.4
			C23.3-44.9,24-44.3,25-44.3z M37.3-44.3h3.4c1.1,0,1.7-0.6,1.7-1.7v-3.4c0-1.1-0.6-1.7-1.7-1.7h-3.4c-1,0-1.7,0.6-1.7,1.7v3.4
			C35.6-44.9,36.3-44.3,37.3-44.3z M49.6-44.3H53c1.1,0,1.7-0.6,1.7-1.7v-3.4c0-1.1-0.6-1.7-1.7-1.7h-3.4c-1,0-1.7,0.6-1.7,1.7v3.4
			C47.9-44.9,48.6-44.3,49.6-44.3z M61.9-44.3h3.4c1.1,0,1.7-0.6,1.7-1.7v-3.4c0-1.1-0.6-1.7-1.7-1.7h-3.4c-1,0-1.7,0.6-1.7,1.7v3.4
			C60.3-44.9,60.9-44.3,61.9-44.3z M74.2-44.3h3.4c1.1,0,1.7-0.6,1.7-1.7v-3.4c0-1.1-0.6-1.7-1.7-1.7h-3.4c-1,0-1.7,0.6-1.7,1.7v3.4
			C72.6-44.9,73.2-44.3,74.2-44.3z M86.5-44.3h3.4c1.1,0,1.7-0.6,1.7-1.7v-3.4c0-1.1-0.6-1.7-1.7-1.7h-3.4c-1,0-1.7,0.6-1.7,1.7v3.4
			C84.9-44.9,85.5-44.3,86.5-44.3z M25-32h3.4c1.1,0,1.7-0.6,1.7-1.7V-37c0-1.1-0.6-1.7-1.7-1.7H25c-1,0-1.7,0.6-1.7,1.7v3.4
			C23.3-32.6,24-32,25-32z M37.3-32h3.4c1.1,0,1.7-0.6,1.7-1.7V-37c0-1.1-0.6-1.7-1.7-1.7h-3.4c-1,0-1.7,0.6-1.7,1.7v3.4
			C35.6-32.6,36.3-32,37.3-32z M49.6-32H53c1.1,0,1.7-0.6,1.7-1.7V-37c0-1.1-0.6-1.7-1.7-1.7h-3.4c-1,0-1.7,0.6-1.7,1.7v3.4
			C47.9-32.6,48.6-32,49.6-32z M61.9-32h3.4c1.1,0,1.7-0.6,1.7-1.7V-37c0-1.1-0.6-1.7-1.7-1.7h-3.4c-1,0-1.7,0.6-1.7,1.7v3.4
			C60.3-32.6,60.9-32,61.9-32z M74.2-32h3.4c1.1,0,1.7-0.6,1.7-1.7V-37c0-1.1-0.6-1.7-1.7-1.7h-3.4c-1,0-1.7,0.6-1.7,1.7v3.4
			C72.6-32.6,73.2-32,74.2-32z M86.5-32h3.4c1.1,0,1.7-0.6,1.7-1.7V-37c0-1.1-0.6-1.7-1.7-1.7h-3.4c-1,0-1.7,0.6-1.7,1.7v3.4
			C84.9-32.6,85.5-32,86.5-32z M25-19.7h3.4c1.1,0,1.7-0.6,1.7-1.7v-3.4c0-1.1-0.6-1.7-1.7-1.7H25c-1,0-1.7,0.6-1.7,1.7v3.4
			C23.3-20.3,24-19.7,25-19.7z M37.6-19.7h39.6c1.3,0,2-0.7,2-2v-2.7c0-1.3-0.7-2-2-2H37.6c-1.3,0-2,0.7-2,2v2.7
			C35.6-20.4,36.4-19.7,37.6-19.7z M86.5-19.7h3.4c1.1,0,1.7-0.6,1.7-1.7v-3.4c0-1.1-0.6-1.7-1.7-1.7h-3.4c-1,0-1.7,0.6-1.7,1.7v3.4
			C84.9-20.3,85.5-19.7,86.5-19.7z"/>
	</g>
	<g id="Thin-S" transform="matrix(1 0 0 1 799.733 696)">
		<path d="M20.3-6.2h72.8c6.9,0,10.5-3.7,10.5-10.5v-37.3c0-6.8-3.6-10.5-10.5-10.5H20.3c-6.9,0-10.5,3.6-10.5,10.5v37.3
			C9.8-9.8,13.4-6.2,20.3-6.2z M20.4-9.5c-4.8,0-7.3-2.5-7.3-7.4v-36.9c0-4.8,2.5-7.4,7.3-7.4H93c4.6,0,7.3,2.5,7.3,7.4v36.9
			c0,4.9-2.7,7.4-7.3,7.4H20.4z M24.2-44.6h3c1,0,1.6-0.6,1.6-1.6v-3c0-1.1-0.6-1.6-1.6-1.6h-3c-1,0-1.6,0.5-1.6,1.6v3
			C22.6-45.2,23.1-44.6,24.2-44.6z M36.5-44.6h3c1,0,1.6-0.6,1.6-1.6v-3c0-1.1-0.6-1.6-1.6-1.6h-3c-1,0-1.6,0.5-1.6,1.6v3
			C34.9-45.2,35.4-44.6,36.5-44.6z M48.8-44.6h3c1,0,1.6-0.6,1.6-1.6v-3c0-1.1-0.6-1.6-1.6-1.6h-3c-1,0-1.6,0.5-1.6,1.6v3
			C47.2-45.2,47.8-44.6,48.8-44.6z M61.1-44.6h3c1,0,1.6-0.6,1.6-1.6v-3c0-1.1-0.6-1.6-1.6-1.6h-3c-1,0-1.6,0.5-1.6,1.6v3
			C59.5-45.2,60.1-44.6,61.1-44.6z M73.4-44.6h3c1,0,1.6-0.6,1.6-1.6v-3c0-1.1-0.6-1.6-1.6-1.6h-3c-1,0-1.6,0.5-1.6,1.6v3
			C71.8-45.2,72.4-44.6,73.4-44.6z M85.7-44.6h3c1,0,1.6-0.6,1.6-1.6v-3c0-1.1-0.6-1.6-1.6-1.6h-3c-1,0-1.6,0.5-1.6,1.6v3
			C84.1-45.2,84.7-44.6,85.7-44.6z M24.2-32.3h3c1,0,1.6-0.6,1.6-1.6v-3c0-1.1-0.6-1.6-1.6-1.6h-3c-1,0-1.6,0.5-1.6,1.6v3
			C22.6-32.9,23.1-32.3,24.2-32.3z M36.5-32.3h3c1,0,1.6-0.6,1.6-1.6v-3c0-1.1-0.6-1.6-1.6-1.6h-3c-1,0-1.6,0.5-1.6,1.6v3
			C34.9-32.9,35.4-32.3,36.5-32.3z M48.8-32.3h3c1,0,1.6-0.6,1.6-1.6v-3c0-1.1-0.6-1.6-1.6-1.6h-3c-1,0-1.6,0.5-1.6,1.6v3
			C47.2-32.9,47.8-32.3,48.8-32.3z M61.1-32.3h3c1,0,1.6-0.6,1.6-1.6v-3c0-1.1-0.6-1.6-1.6-1.6h-3c-1,0-1.6,0.5-1.6,1.6v3
			C59.5-32.9,60.1-32.3,61.1-32.3z M73.4-32.3h3c1,0,1.6-0.6,1.6-1.6v-3c0-1.1-0.6-1.6-1.6-1.6h-3c-1,0-1.6,0.5-1.6,1.6v3
			C71.8-32.9,72.4-32.3,73.4-32.3z M85.7-32.3h3c1,0,1.6-0.6,1.6-1.6v-3c0-1.1-0.6-1.6-1.6-1.6h-3c-1,0-1.6,0.5-1.6,1.6v3
			C84.1-32.9,84.7-32.3,85.7-32.3z M24.2-20h3c1,0,1.6-0.6,1.6-1.6v-3c0-1.1-0.6-1.6-1.6-1.6h-3c-1,0-1.6,0.5-1.6,1.6v3
			C22.6-20.6,23.1-20,24.2-20z M36.6-20h39.6c1.1,0,1.7-0.6,1.7-1.8v-2.7c0-1.1-0.6-1.7-1.7-1.7H36.6c-1.1,0-1.8,0.6-1.8,1.7v2.7
			C34.9-20.7,35.5-20,36.6-20z M85.7-20h3c1,0,1.6-0.6,1.6-1.6v-3c0-1.1-0.6-1.6-1.6-1.6h-3c-1,0-1.6,0.5-1.6,1.6v3
			C84.1-20.6,84.7-20,85.7-20z"/>
	</g>
	<g id="Ultralight-S" transform="matrix(1 0 0 1 503.51 696)">
		<path d="M19.8-6.6h72.9c6.5,0,10-3.6,10-10V-54c0-6.4-3.4-10-10-10H19.8c-6.5,0-10,3.5-10,10v37.5C9.8-10.1,13.2-6.6,19.8-6.6z
			 M19.9-8.8c-5.2,0-7.9-2.7-7.9-7.9v-37.2c0-5.2,2.7-7.9,7.9-7.9h72.7c5,0,7.9,2.7,7.9,7.9v37.2c0,5.2-2.9,7.9-7.9,7.9H19.9z
			 M23.7-44.8h2.8c1,0,1.6-0.5,1.6-1.6v-2.8c0-1-0.5-1.6-1.6-1.6h-2.8c-1,0-1.6,0.5-1.6,1.6v2.8C22.2-45.4,22.7-44.8,23.7-44.8z
			 M36-44.8h2.8c1,0,1.6-0.5,1.6-1.6v-2.8c0-1-0.5-1.6-1.6-1.6H36c-1,0-1.6,0.5-1.6,1.6v2.8C34.5-45.4,35-44.8,36-44.8z M48.3-44.8
			h2.8c1,0,1.6-0.5,1.6-1.6v-2.8c0-1-0.5-1.6-1.6-1.6h-2.8c-1,0-1.6,0.5-1.6,1.6v2.8C46.8-45.4,47.3-44.8,48.3-44.8z M60.6-44.8h2.8
			c1,0,1.6-0.5,1.6-1.6v-2.8c0-1-0.5-1.6-1.6-1.6h-2.8c-1,0-1.6,0.5-1.6,1.6v2.8C59.1-45.4,59.6-44.8,60.6-44.8z M72.9-44.8h2.8
			c1,0,1.6-0.5,1.6-1.6v-2.8c0-1-0.5-1.6-1.6-1.6h-2.8c-1,0-1.6,0.5-1.6,1.6v2.8C71.4-45.4,71.9-44.8,72.9-44.8z M85.3-44.8H88
			c1,0,1.6-0.5,1.6-1.6v-2.8c0-1-0.5-1.6-1.6-1.6h-2.8c-1,0-1.6,0.5-1.6,1.6v2.8C83.7-45.4,84.2-44.8,85.3-44.8z M23.7-32.5h2.8
			c1,0,1.6-0.5,1.6-1.6v-2.8c0-1-0.5-1.6-1.6-1.6h-2.8c-1,0-1.6,0.5-1.6,1.6v2.8C22.2-33.1,22.7-32.5,23.7-32.5z M36-32.5h2.8
			c1,0,1.6-0.5,1.6-1.6v-2.8c0-1-0.5-1.6-1.6-1.6H36c-1,0-1.6,0.5-1.6,1.6v2.8C34.5-33.1,35-32.5,36-32.5z M48.3-32.5h2.8
			c1,0,1.6-0.5,1.6-1.6v-2.8c0-1-0.5-1.6-1.6-1.6h-2.8c-1,0-1.6,0.5-1.6,1.6v2.8C46.8-33.1,47.3-32.5,48.3-32.5z M60.6-32.5h2.8
			c1,0,1.6-0.5,1.6-1.6v-2.8c0-1-0.5-1.6-1.6-1.6h-2.8c-1,0-1.6,0.5-1.6,1.6v2.8C59.1-33.1,59.6-32.5,60.6-32.5z M72.9-32.5h2.8
			c1,0,1.6-0.5,1.6-1.6v-2.8c0-1-0.5-1.6-1.6-1.6h-2.8c-1,0-1.6,0.5-1.6,1.6v2.8C71.4-33.1,71.9-32.5,72.9-32.5z M85.3-32.5H88
			c1,0,1.6-0.5,1.6-1.6v-2.8c0-1-0.5-1.6-1.6-1.6h-2.8c-1,0-1.6,0.5-1.6,1.6v2.8C83.7-33.1,84.2-32.5,85.3-32.5z M23.7-20.2h2.8
			c1,0,1.6-0.5,1.6-1.6v-2.8c0-1-0.5-1.6-1.6-1.6h-2.8c-1,0-1.6,0.5-1.6,1.6v2.8C22.2-20.8,22.7-20.2,23.7-20.2z M36.1-20.2h39.6
			c1,0,1.6-0.5,1.6-1.6v-2.7c0-1-0.5-1.6-1.6-1.6H36.1c-1.1,0-1.6,0.5-1.6,1.6v2.7C34.5-20.8,35-20.2,36.1-20.2z M85.3-20.2H88
			c1,0,1.6-0.5,1.6-1.6v-2.8c0-1-0.5-1.6-1.6-1.6h-2.8c-1,0-1.6,0.5-1.6,1.6v2.8C83.7-20.8,84.2-20.2,85.3-20.2z"/>
	</g>
</g>
</svg>
