<?xml version="1.0" encoding="utf-8"?>
<!-- Generator: Adobe Illustrator 24.1.0, SVG Export Plug-In . SVG Version: 6.00 Build 0)  -->
<svg version="1.1" id="Layer_1" xmlns="http://www.w3.org/2000/svg" xmlns:xlink="http://www.w3.org/1999/xlink" x="0px" y="0px"
	 viewBox="0 0 3300 2200" style="enable-background:new 0 0 3300 2200;" xml:space="preserve">
<g id="Symbols">
	<g id="Black-L" transform="matrix(1 0 0 1 2849.17 1556)">
		<path d="M40,26.5h88.5c15.2,0,23.9-8.6,23.9-23.8v-75.8c0-15.2-8.7-23.8-23.9-23.8H40c-15.2,0-23.9,8.6-23.9,23.8V2.7
			C16.1,17.9,24.8,26.5,40,26.5z M42.3,6.3c-4,0-6-1.8-6-6.1v-54.3c0-4.3,2-6.1,6-6.1h83.7c4,0,6.1,1.8,6.1,6.1V0.2
			c0,4.3-2.1,6.1-6.1,6.1H42.3z M53-39.8h62.5c2.6,0,4.5-2,4.5-4.6c0-2.5-2-4.4-4.5-4.4H53c-2.7,0-4.6,1.9-4.6,4.4
			C48.4-41.8,50.3-39.8,53-39.8z M53-22.5h62.5c2.6,0,4.5-2,4.5-4.4c0-2.5-2-4.6-4.5-4.6H53c-2.7,0-4.6,2.1-4.6,4.6
			C48.4-24.4,50.3-22.5,53-22.5z M53-5.1h38.4c2.6,0,4.5-2,4.5-4.4c0-2.6-2-4.6-4.5-4.6H53c-2.7,0-4.6,2-4.6,4.6
			C48.4-7,50.3-5.1,53-5.1z"/>
	</g>
	<g id="Heavy-L" transform="matrix(1 0 0 1 2553.8 1556)">
		<path d="M38.8,25.5H127c14.6,0,22.8-8.1,22.8-22.6v-76.1c0-14.6-8.1-22.6-22.8-22.6H38.8c-14.6,0-22.8,8.1-22.8,22.6V2.9
			C16.1,17.4,24.2,25.5,38.8,25.5z M40.4,8c-4.5,0-6.8-2.1-6.8-6.9v-55.3c0-4.8,2.3-6.9,6.8-6.9h84.9c4.5,0,6.9,2.1,6.9,6.9V1.1
			c0,4.8-2.4,6.9-6.9,6.9H40.4z M51-40.1h63.8c2.4,0,4.2-1.9,4.2-4.3c0-2.3-1.9-4.2-4.2-4.2H51c-2.5,0-4.3,1.8-4.3,4.2
			C46.7-42,48.5-40.1,51-40.1z M51-22.4h63.8c2.4,0,4.2-1.8,4.2-4.2c0-2.4-1.9-4.3-4.2-4.3H51c-2.5,0-4.3,1.9-4.3,4.3
			C46.7-24.2,48.5-22.4,51-22.4z M51-4.5h39.7c2.4,0,4.2-1.8,4.2-4.2c0-2.4-1.9-4.3-4.2-4.3H51c-2.5,0-4.3,1.9-4.3,4.3
			C46.7-6.3,48.5-4.5,51-4.5z"/>
	</g>
	<g id="Bold-L" transform="matrix(1 0 0 1 2258.56 1556)">
		<path d="M37.5,24.4h87.8c14,0,21.5-7.5,21.5-21.3v-76.5c0-13.8-7.5-21.3-21.5-21.3H37.5c-13.9,0-21.4,7.5-21.4,21.3V3.1
			C16.1,16.9,23.6,24.4,37.5,24.4z M38.4,9.9c-5.1,0-7.9-2.5-7.9-7.9v-56.3c0-5.4,2.7-7.9,7.9-7.9h86c5.1,0,7.9,2.5,7.9,7.9V2
			c0,5.4-2.8,7.9-7.9,7.9H38.4z M48.9-40.5H114c2.3,0,4-1.8,4-4c0-2.2-1.7-3.9-4-3.9H48.9c-2.3,0-4.1,1.7-4.1,3.9
			C44.8-42.3,46.5-40.5,48.9-40.5z M48.9-22.2H114c2.3,0,4-1.7,4-3.9c0-2.2-1.7-4-4-4H48.9c-2.3,0-4.1,1.8-4.1,4
			C44.8-23.9,46.5-22.2,48.9-22.2z M48.9-3.9h41c2.3,0,4-1.7,4-3.9c0-2.2-1.7-4-4-4h-41c-2.3,0-4.1,1.8-4.1,4
			C44.8-5.6,46.5-3.9,48.9-3.9z"/>
	</g>
	<g id="Semibold-L" transform="matrix(1 0 0 1 1962.87 1556)">
		<path d="M36.6,23.6h87.5c13.4,0,20.6-7.1,20.6-20.4v-76.7c0-13.3-7.1-20.4-20.6-20.4H36.6c-13.4,0-20.6,7.1-20.6,20.4V3.2
			C16.1,16.6,23.2,23.6,36.6,23.6z M36.9,11.3c-5.5,0-8.5-2.8-8.5-8.6v-57c0-5.8,3-8.6,8.5-8.6h86.9c5.5,0,8.5,2.8,8.5,8.6v57
			c0,5.8-3.1,8.6-8.5,8.6H36.9z M47.4-40.8h66.1c2.1,0,3.8-1.7,3.8-3.8c0-2.1-1.6-3.7-3.8-3.7H47.4c-2.2,0-3.8,1.6-3.8,3.7
			C43.6-42.4,45.2-40.8,47.4-40.8z M47.4-22.1h66.1c2.1,0,3.8-1.6,3.8-3.7c0-2.1-1.6-3.8-3.8-3.8H47.4c-2.2,0-3.8,1.7-3.8,3.8
			C43.6-23.7,45.2-22.1,47.4-22.1z M47.4-3.5h42c2.1,0,3.8-1.6,3.8-3.7c0-2.1-1.6-3.8-3.8-3.8h-42c-2.2,0-3.8,1.7-3.8,3.8
			C43.6-5.1,45.2-3.5,47.4-3.5z"/>
	</g>
	<g id="Medium-L" transform="matrix(1 0 0 1 1666.94 1556)">
		<path d="M35.9,23h87.4c13.1,0,19.9-6.8,19.9-19.7v-76.9c0-12.9-6.8-19.7-19.9-19.7H35.9c-13,0-19.9,6.7-19.9,19.7V3.3
			C16.1,16.3,22.9,23,35.9,23z M35.8,12.3c-5.9,0-9-3-9-9.1v-57.6c0-6.1,3.2-9.1,9-9.1h87.5c5.8,0,9.1,3.1,9.1,9.1V3.2
			c0,6.1-3.3,9.1-9.1,9.1H35.8z M46.2-41h66.8c2.1,0,3.6-1.6,3.6-3.6c0-2-1.6-3.5-3.6-3.5H46.2c-2.1,0-3.7,1.5-3.7,3.5
			C42.5-42.5,44.1-41,46.2-41z M46.2-22h66.8c2.1,0,3.6-1.6,3.6-3.6c0-2-1.6-3.6-3.6-3.6H46.2c-2.1,0-3.7,1.6-3.7,3.6
			C42.5-23.6,44.1-22,46.2-22z M46.2-3.1H89c2.1,0,3.6-1.6,3.6-3.5c0-2.1-1.6-3.7-3.6-3.7H46.2c-2.1,0-3.7,1.6-3.7,3.7
			C42.5-4.7,44.1-3.1,46.2-3.1z"/>
	</g>
	<g id="Regular-L" transform="matrix(1 0 0 1 1371.23 1556)">
		<path d="M35.1,22.2h87.1c12.6,0,19-6.3,19-18.8v-77.1c0-12.5-6.4-18.8-19-18.8H35.1c-12.6,0-19,6.3-19,18.8V3.4
			C16.1,15.9,22.5,22.2,35.1,22.2z M34.4,13.6c-6.2,0-9.7-3.3-9.7-9.8v-58.3c0-6.5,3.4-9.8,9.7-9.8h88.4c6.2,0,9.7,3.3,9.7,9.8V3.8
			c0,6.4-3.5,9.8-9.7,9.8H34.4z M44.7-41.2h67.8c2,0,3.4-1.5,3.4-3.5c0-1.9-1.5-3.3-3.4-3.3H44.7c-2,0-3.5,1.5-3.5,3.3
			C41.3-42.7,42.7-41.2,44.7-41.2z M44.7-21.9h67.8c2,0,3.4-1.5,3.4-3.4c0-1.9-1.5-3.4-3.4-3.4H44.7c-2,0-3.5,1.5-3.5,3.4
			C41.3-23.4,42.7-21.9,44.7-21.9z M44.7-2.7h43.7c2,0,3.4-1.5,3.4-3.3c0-2-1.5-3.5-3.4-3.5H44.7c-2,0-3.5,1.5-3.5,3.5
			C41.3-4.2,42.7-2.7,44.7-2.7z"/>
	</g>
	<g id="Light-L" transform="matrix(1 0 0 1 1074.89 1556)">
		<path d="M34,21.4h88.4c11.9,0,18-6.2,18-17.9v-77.4c0-11.7-6.1-17.9-18-17.9H34c-11.9,0-18,6.1-18,17.9V3.6
			C16.1,15.4,22.2,21.4,34,21.4z M33.7,14.8c-7.2,0-11-3.8-11-11V-53c0-7.3,3.8-11.1,11-11.1h89.1c7,0,11,3.8,11,11.1V3.8
			c0,7.3-4.1,11-11,11H33.7z M43.3-41.5h70c1.6,0,2.7-1.2,2.7-2.7s-1.2-2.7-2.7-2.7h-70c-1.6,0-2.8,1.2-2.8,2.7S41.7-41.5,43.3-41.5
			z M43.3-21.9h70c1.6,0,2.7-1.2,2.7-2.7c0-1.5-1.2-2.7-2.7-2.7h-70c-1.6,0-2.8,1.2-2.8,2.7C40.5-23.1,41.7-21.9,43.3-21.9z
			 M43.3-2.3h45.8c1.6,0,2.8-1.2,2.8-2.7c0-1.6-1.2-2.8-2.8-2.8H43.3c-1.6,0-2.8,1.2-2.8,2.8C40.5-3.5,41.7-2.3,43.3-2.3z"/>
	</g>
	<g id="Thin-L" transform="matrix(1 0 0 1 778.639 1556)">
		<path d="M32.7,20.4h90.2c10.9,0,16.6-5.9,16.6-16.6V-74c0-10.7-5.7-16.6-16.6-16.6H32.7c-10.9,0-16.6,5.7-16.6,16.6V3.8
			C16.1,14.6,21.8,20.4,32.7,20.4z M32.7,16.4C24.4,16.4,20,12.1,20,3.7v-54.7c0-8.4,4.4-12.7,12.7-12.7h90.1
			c8.1,0,12.7,4.3,12.7,12.7V3.7c0,8.4-4.7,12.7-12.7,12.7H32.7z M41.4-41.9h72.9c1.1,0,1.9-0.8,1.9-1.9s-0.8-1.9-1.9-1.9H41.4
			c-1.1,0-2,0.8-2,1.9S40.2-41.9,41.4-41.9z M41.4-21.9h72.9c1.1,0,1.9-0.8,1.9-1.8s-0.8-1.9-1.9-1.9H41.4c-1.1,0-2,0.8-2,1.9
			S40.2-21.9,41.4-21.9z M41.4-1.8h48.8c1.1,0,1.9-0.8,1.9-1.8s-0.8-1.9-1.9-1.9H41.4c-1.1,0-2,0.8-2,1.9S40.2-1.8,41.4-1.8z"/>
	</g>
	<g id="Ultralight-L" transform="matrix(1 0 0 1 482.148 1556)">
		<path d="M32,19.8h91.2c10.4,0,15.9-5.7,15.9-15.9v-77.9c0-10.2-5.6-15.9-15.9-15.9H32c-10.4,0-15.9,5.5-15.9,15.9V3.9
			C16.1,14.3,21.6,19.8,32,19.8z M32.2,17.2c-9,0-13.6-4.6-13.6-13.6V-50c0-9,4.6-13.6,13.6-13.6h90.6c8.6,0,13.6,4.6,13.6,13.6V3.6
			c0,9-5,13.6-13.6,13.6H32.2z M40.3-42.1h74.4c0.8,0,1.5-0.6,1.5-1.4c0-0.8-0.6-1.4-1.5-1.4H40.3c-0.8,0-1.5,0.6-1.5,1.4
			C38.9-42.8,39.5-42.1,40.3-42.1z M40.3-21.8h74.4c0.8,0,1.5-0.6,1.5-1.4c0-0.7-0.6-1.4-1.5-1.4H40.3c-0.8,0-1.5,0.6-1.5,1.4
			C38.9-22.5,39.5-21.8,40.3-21.8z M40.3-1.5h50.3c0.8,0,1.5-0.6,1.5-1.4c0-0.7-0.6-1.4-1.5-1.4H40.3c-0.8,0-1.5,0.6-1.5,1.4
			C38.9-2.1,39.5-1.5,40.3-1.5z"/>
	</g>
	<g id="Black-M" transform="matrix(1 0 0 1 2866.53 1126)">
		<path d="M32,13.6h69.8c12.3,0,19.5-7.3,19.5-19.5v-58.4c0-12.3-7.3-19.5-19.5-19.5H32c-12.3,0-19.5,7.3-19.5,19.5V-6
			C12.5,6.3,19.7,13.6,32,13.6z M35-4.7c-2.9,0-4.2-1.1-4.2-4.2V-49c0-3.1,1.3-4.2,4.2-4.2h63.8c2.9,0,4.2,1.1,4.2,4.2v40.1
			c0,3.1-1.3,4.2-4.2,4.2H35z M42.9-38.5h48c2,0,3.5-1.6,3.5-3.6c0-2-1.5-3.4-3.5-3.4h-48c-2.1,0-3.5,1.5-3.5,3.4
			C39.4-40.1,40.8-38.5,42.9-38.5z M42.9-25.5h48c2,0,3.5-1.5,3.5-3.4c0-2-1.5-3.6-3.5-3.6h-48c-2.1,0-3.5,1.6-3.5,3.6
			C39.4-27,40.8-25.5,42.9-25.5z M42.9-12.5h29.3c2,0,3.5-1.5,3.5-3.4c0-2-1.5-3.6-3.5-3.6H42.9c-2.1,0-3.5,1.6-3.5,3.6
			C39.4-13.9,40.8-12.5,42.9-12.5z"/>
	</g>
	<g id="Heavy-M" transform="matrix(1 0 0 1 2571.19 1126)">
		<path d="M31,12.6h69c11.8,0,18.5-6.7,18.5-18.5v-58.7c0-11.7-6.7-18.5-18.5-18.5H31c-11.8,0-18.6,6.7-18.6,18.5v58.7
			C12.5,5.9,19.2,12.6,31,12.6z M33.1-3.2c-3.2,0-4.8-1.4-4.8-4.8v-41.5c0-3.5,1.6-4.8,4.8-4.8h64.8c3.2,0,4.8,1.4,4.8,4.8V-8
			c0,3.5-1.6,4.8-4.8,4.8H33.1z M41.2-38.8h48.8c1.9,0,3.4-1.5,3.4-3.4c0-1.9-1.5-3.3-3.4-3.3H41.2c-2,0-3.5,1.5-3.5,3.3
			C37.7-40.3,39.2-38.8,41.2-38.8z M41.2-25.3h48.8c1.9,0,3.4-1.5,3.4-3.3c0-2-1.5-3.5-3.4-3.5H41.2c-2,0-3.5,1.5-3.5,3.5
			C37.7-26.8,39.2-25.3,41.2-25.3z M41.2-11.9h30.1c1.9,0,3.4-1.5,3.4-3.3c0-1.9-1.5-3.4-3.4-3.4H41.2c-2,0-3.5,1.5-3.5,3.4
			C37.7-13.4,39.2-11.9,41.2-11.9z"/>
	</g>
	<g id="Bold-M" transform="matrix(1 0 0 1 2275.99 1126)">
		<path d="M29.9,11.7h68.2c11.2,0,17.4-6.2,17.4-17.3v-59c0-11.2-6.2-17.3-17.4-17.3H29.9c-11.2,0-17.4,6.2-17.4,17.3v59
			C12.5,5.5,18.7,11.7,29.9,11.7z M31-1.4c-3.6,0-5.5-1.7-5.5-5.5V-50c0-3.8,1.9-5.5,5.5-5.5h66c3.6,0,5.5,1.7,5.5,5.5v43.1
			c0,3.8-1.9,5.5-5.5,5.5H31z M39.2-39.1h49.7c1.9,0,3.2-1.5,3.2-3.3c0-1.8-1.4-3.2-3.2-3.2H39.2c-1.9,0-3.3,1.4-3.3,3.2
			C35.9-40.6,37.3-39.1,39.2-39.1z M39.2-25.2h49.7c1.9,0,3.2-1.4,3.2-3.2c0-1.9-1.4-3.3-3.2-3.3H39.2c-1.9,0-3.3,1.4-3.3,3.3
			C35.9-26.6,37.3-25.2,39.2-25.2z M39.2-11.3h31c1.9,0,3.2-1.4,3.2-3.2c0-1.9-1.4-3.3-3.2-3.3h-31c-1.9,0-3.3,1.5-3.3,3.3
			C35.9-12.7,37.3-11.3,39.2-11.3z"/>
	</g>
	<g id="Semibold-M" transform="matrix(1 0 0 1 1980.33 1126)">
		<path d="M29.1,11h67.7c10.9,0,16.7-5.8,16.7-16.6v-59.3c0-10.7-5.8-16.5-16.7-16.5H29.1c-10.8,0-16.7,5.8-16.7,16.5v59.3
			C12.5,5.2,18.3,11,29.1,11z M29.6-0.2c-3.9,0-6-2-6-6v-44.1c0-4.1,2.1-6,6-6h66.7c3.9,0,6,1.9,6,6v44.1c0,4.1-2.1,6-6,6H29.6z
			 M37.8-39.3h50.2c1.8,0,3.2-1.4,3.2-3.2c0-1.8-1.4-3.1-3.2-3.1H37.8c-1.9,0-3.2,1.3-3.2,3.1C34.6-40.7,36-39.3,37.8-39.3z
			 M37.8-25.1h50.2c1.8,0,3.2-1.4,3.2-3.1c0-1.8-1.4-3.2-3.2-3.2H37.8c-1.9,0-3.2,1.4-3.2,3.2C34.6-26.5,36-25.1,37.8-25.1z
			 M37.8-10.9h31.5c1.8,0,3.2-1.4,3.2-3.1s-1.4-3.2-3.2-3.2H37.8c-1.9,0-3.2,1.4-3.2,3.2S36-10.9,37.8-10.9z"/>
	</g>
	<g id="Medium-M" transform="matrix(1 0 0 1 1684.4 1126)">
		<path d="M28.5,10.4h67.2c10.6,0,16.1-5.5,16.1-15.9v-59.4c0-10.4-5.5-15.9-16.1-15.9H28.5c-10.5,0-16.1,5.4-16.1,15.9v59.4
			C12.5,5,18,10.4,28.5,10.4z M28.5,0.7c-4.1,0-6.3-2.1-6.3-6.4v-44.9c0-4.3,2.2-6.4,6.3-6.4h67.3c4.1,0,6.3,2.1,6.3,6.4v44.9
			c0,4.3-2.2,6.4-6.3,6.4H28.5z M36.8-39.5h50.7c1.8,0,3.1-1.4,3.1-3.2c0-1.7-1.3-3-3.1-3H36.8c-1.8,0-3.1,1.3-3.1,3
			C33.7-40.8,35-39.5,36.8-39.5z M36.8-25h50.7c1.8,0,3.1-1.3,3.1-3c0-1.8-1.3-3.2-3.1-3.2H36.8c-1.8,0-3.1,1.4-3.1,3.2
			C33.7-26.4,35-25,36.8-25z M36.8-10.6h32c1.8,0,3.1-1.3,3.1-3c0-1.8-1.3-3.1-3.1-3.1h-32c-1.8,0-3.1,1.4-3.1,3.1
			C33.7-12,35-10.6,36.8-10.6z"/>
	</g>
	<g id="Regular-M" transform="matrix(1 0 0 1 1388.74 1126)">
		<path d="M27.8,9.8h66.7c10.2,0,15.3-5.1,15.3-15.1V-65c0-10.1-5.1-15.1-15.3-15.1H27.8c-10.2,0-15.3,5-15.3,15.1v59.6
			C12.5,4.7,17.6,9.8,27.8,9.8z M27.1,1.9c-4.3,0-6.7-2.3-6.7-6.8v-46c0-4.5,2.4-6.8,6.7-6.8h68.1c4.3,0,6.8,2.3,6.8,6.8v46
			c0,4.5-2.4,6.8-6.8,6.8H27.1z M35.5-39.6h51.3c1.8,0,3-1.4,3-3.1c0-1.7-1.3-2.9-3-2.9H35.5c-1.8,0-3.1,1.3-3.1,2.9
			C32.4-41,33.7-39.6,35.5-39.6z M35.5-25h51.3c1.8,0,3-1.3,3-2.9c0-1.8-1.3-3.1-3-3.1H35.5c-1.8,0-3.1,1.3-3.1,3.1
			C32.4-26.2,33.7-25,35.5-25z M35.5-10.3h32.6c1.8,0,3-1.3,3-2.9c0-1.7-1.3-3.1-3-3.1H35.5c-1.8,0-3.1,1.4-3.1,3.1
			C32.4-11.5,33.7-10.3,35.5-10.3z"/>
	</g>
	<g id="Light-M" transform="matrix(1 0 0 1 1092.32 1126)">
		<path d="M26.9,9h67.9c9.5,0,14.4-4.9,14.4-14.3v-59.9c0-9.4-4.9-14.3-14.4-14.3H26.9c-9.5,0-14.4,4.8-14.4,14.3v59.9
			C12.5,4.2,17.3,9,26.9,9z M26.4,3c-5.1,0-7.9-2.7-7.9-8v-44.7c0-5.3,2.8-8,7.9-8h68.8c5,0,8,2.7,8,8V-5c0,5.3-2.9,8-8,8H26.4z
			 M34.2-39.9h53.3c1.4,0,2.4-1.1,2.4-2.4c0-1.3-1.1-2.4-2.4-2.4H34.2c-1.4,0-2.4,1.1-2.4,2.4C31.7-41,32.8-39.9,34.2-39.9z
			 M34.2-24.9h53.3c1.4,0,2.4-1.1,2.4-2.4c0-1.4-1.1-2.4-2.4-2.4H34.2c-1.4,0-2.4,1.1-2.4,2.4C31.7-26,32.8-24.9,34.2-24.9z
			 M34.2-9.9h34.6c1.4,0,2.4-1.1,2.4-2.4c0-1.4-1-2.4-2.4-2.4H34.2c-1.4,0-2.4,1.1-2.4,2.4C31.7-10.9,32.8-9.9,34.2-9.9z"/>
	</g>
	<g id="Thin-M" transform="matrix(1 0 0 1 796.046 1126)">
		<path d="M25.6,8.1h69.5c8.6,0,13.1-4.6,13.1-13.1v-60.2c0-8.5-4.5-13.1-13.1-13.1H25.6c-8.6,0-13.2,4.5-13.2,13.1V-5
			C12.5,3.6,17,8.1,25.6,8.1z M25.6,4.4c-6.2,0-9.5-3.2-9.5-9.5v-42.8c0-6.3,3.3-9.5,9.5-9.5h69.6c6,0,9.5,3.2,9.5,9.5v42.8
			c0,6.3-3.5,9.5-9.5,9.5H25.6z M32.5-40.3h55.9c0.9,0,1.7-0.7,1.7-1.6c0-0.9-0.7-1.6-1.7-1.6H32.5c-1,0-1.7,0.7-1.7,1.6
			C30.8-41.1,31.5-40.3,32.5-40.3z M32.5-24.9h55.9c0.9,0,1.7-0.7,1.7-1.6c0-0.9-0.7-1.7-1.7-1.7H32.5c-1,0-1.7,0.7-1.7,1.7
			C30.8-25.6,31.5-24.9,32.5-24.9z M32.5-9.4h37.2c0.9,0,1.7-0.7,1.7-1.6c0-0.9-0.7-1.6-1.7-1.6H32.5c-1,0-1.7,0.7-1.7,1.6
			C30.8-10.2,31.5-9.4,32.5-9.4z"/>
	</g>
	<g id="Ultralight-M" transform="matrix(1 0 0 1 499.53 1126)">
		<path d="M25,7.6h70.4c8.2,0,12.5-4.4,12.5-12.5v-60.3c0-8.1-4.3-12.5-12.5-12.5H25c-8.2,0-12.5,4.3-12.5,12.5V-5
			C12.5,3.2,16.8,7.6,25,7.6z M25.1,5.2c-6.8,0-10.3-3.5-10.3-10.3V-47c0-6.8,3.5-10.3,10.3-10.3h70.1c6.5,0,10.3,3.5,10.3,10.3
			v41.9c0,6.7-3.8,10.3-10.3,10.3H25.1z M31.6-40.5h57.2c0.7,0,1.3-0.5,1.3-1.2c0-0.6-0.5-1.2-1.3-1.2H31.6c-0.7,0-1.3,0.5-1.3,1.2
			C30.3-41.1,30.9-40.5,31.6-40.5z M31.6-24.9h57.2c0.7,0,1.3-0.5,1.3-1.2c0-0.6-0.5-1.2-1.3-1.2H31.6c-0.7,0-1.3,0.6-1.3,1.2
			C30.3-25.4,30.9-24.9,31.6-24.9z M31.6-9.2h38.5c0.7,0,1.3-0.5,1.3-1.2c0-0.7-0.5-1.2-1.3-1.2H31.6c-0.7,0-1.3,0.5-1.3,1.2
			C30.3-9.7,30.9-9.2,31.6-9.2z"/>
	</g>
	<g id="Black-S" transform="matrix(1 0 0 1 2881.11 696)">
		<path d="M25,2.9h54.6c9.6,0,15.2-5.7,15.2-15.2v-45.8c0-9.6-5.7-15.2-15.2-15.2H25c-9.6,0-15.2,5.7-15.2,15.2v45.8
			C9.8-2.7,15.4,2.9,25,2.9z M27.2-11.2c-2.2,0-3.3-0.9-3.3-3.3v-31.5c0-2.4,1.1-3.3,3.3-3.3h50.1c2.2,0,3.3,0.9,3.3,3.3v31.5
			c0,2.4-1.1,3.3-3.3,3.3H27.2z M33.5-37.8h37.6c1.6,0,2.7-1.2,2.7-2.8c0-1.5-1.2-2.7-2.7-2.7H33.5c-1.6,0-2.8,1.2-2.8,2.7
			C30.7-39.1,31.9-37.8,33.5-37.8z M33.5-27.6h37.6c1.6,0,2.7-1.2,2.7-2.7c0-1.6-1.2-2.8-2.7-2.8H33.5c-1.6,0-2.8,1.2-2.8,2.8
			C30.7-28.8,31.9-27.6,33.5-27.6z M33.5-17.3h23c1.6,0,2.7-1.2,2.7-2.7c0-1.6-1.2-2.8-2.7-2.8h-23c-1.6,0-2.8,1.2-2.8,2.8
			C30.7-18.5,31.9-17.3,33.5-17.3z"/>
	</g>
	<g id="Heavy-S" transform="matrix(1 0 0 1 2585.39 696)">
		<path d="M24.4,2.3h53.9c9.3,0,14.6-5.3,14.6-14.6v-46c0-9.2-5.3-14.6-14.6-14.6H24.4c-9.3,0-14.6,5.3-14.6,14.6v46
			C9.8-3,15.1,2.3,24.4,2.3z M25.9-10.2c-2.4,0-3.6-1.1-3.6-3.7v-32.8c0-2.6,1.2-3.7,3.6-3.7h50.8c2.4,0,3.7,1,3.7,3.7v32.8
			c0,2.6-1.2,3.7-3.7,3.7H25.9z M32.3-38h38c1.6,0,2.7-1.2,2.7-2.7c0-1.5-1.2-2.7-2.7-2.7h-38c-1.6,0-2.8,1.2-2.8,2.7
			C29.5-39.2,30.7-38,32.3-38z M32.3-27.5h38c1.6,0,2.7-1.2,2.7-2.7s-1.2-2.7-2.7-2.7h-38c-1.6,0-2.8,1.2-2.8,2.7
			S30.7-27.5,32.3-27.5z M32.3-17h23.3c1.6,0,2.7-1.1,2.7-2.6c0-1.6-1.2-2.8-2.7-2.8H32.3c-1.6,0-2.8,1.2-2.8,2.8
			C29.5-18.1,30.7-17,32.3-17z"/>
	</g>
	<g id="Bold-S" transform="matrix(1 0 0 1 2289.81 696)">
		<path d="M23.6,1.7h53.1c9,0,13.9-4.9,13.9-13.8v-46.2c0-8.9-4.9-13.8-13.9-13.8H23.6c-8.9,0-13.9,4.9-13.9,13.8v46.2
			C9.8-3.2,14.7,1.7,23.6,1.7z M24.4-8.9c-2.6,0-4-1.3-4-4.1v-34.1c0-2.8,1.4-4.1,4-4.1h51.6c2.6,0,4.1,1.3,4.1,4.1V-13
			c0,2.8-1.4,4.1-4.1,4.1H24.4z M31-38.2h38.5c1.5,0,2.7-1.2,2.7-2.7c0-1.5-1.2-2.7-2.7-2.7H31c-1.6,0-2.7,1.2-2.7,2.7
			C28.2-39.4,29.4-38.2,31-38.2z M31-27.4h38.5c1.5,0,2.7-1.2,2.7-2.6c0-1.5-1.2-2.7-2.7-2.7H31c-1.6,0-2.7,1.2-2.7,2.7
			C28.2-28.6,29.4-27.4,31-27.4z M31-16.6h23.8c1.5,0,2.7-1.2,2.7-2.7S56.3-22,54.8-22H31c-1.6,0-2.7,1.2-2.7,2.7S29.4-16.6,31-16.6
			z"/>
	</g>
	<g id="Semibold-S" transform="matrix(1 0 0 1 1993.88 696)">
		<path d="M23.1,1.2h52.6C84.4,1.2,89-3.4,89-12v-46.4c0-8.6-4.6-13.2-13.3-13.2H23.1c-8.7,0-13.3,4.5-13.3,13.2V-12
			C9.8-3.4,14.4,1.2,23.1,1.2z M23.3-8.1c-2.7,0-4.2-1.4-4.2-4.3v-35.1c0-3,1.5-4.3,4.2-4.3h52.1c2.8,0,4.3,1.4,4.3,4.3v35.1
			c0,2.9-1.5,4.3-4.3,4.3H23.3z M30.1-38.3h38.7c1.5,0,2.6-1.2,2.6-2.7c0-1.5-1.1-2.6-2.6-2.6H30.1c-1.6,0-2.7,1.2-2.7,2.6
			C27.3-39.6,28.5-38.3,30.1-38.3z M30.1-27.3h38.7c1.5,0,2.6-1.2,2.6-2.6c0-1.5-1.1-2.7-2.6-2.7H30.1c-1.6,0-2.7,1.2-2.7,2.7
			C27.3-28.5,28.5-27.3,30.1-27.3z M30.1-16.3h24.1c1.5,0,2.6-1.1,2.6-2.6c0-1.5-1.1-2.7-2.6-2.7H30.1c-1.6,0-2.7,1.2-2.7,2.7
			C27.3-17.4,28.5-16.3,30.1-16.3z"/>
	</g>
	<g id="Medium-S" transform="matrix(1 0 0 1 1697.75 696)">
		<path d="M22.7,0.8h52.2c8.5,0,12.9-4.3,12.9-12.8v-46.5c0-8.4-4.4-12.8-12.9-12.8H22.7c-8.5,0-12.9,4.3-12.9,12.8V-12
			C9.8-3.5,14.2,0.8,22.7,0.8z M22.6-7.5c-2.9,0-4.5-1.5-4.5-4.5v-35.8c0-3.1,1.6-4.5,4.5-4.5H75c2.9,0,4.5,1.5,4.5,4.5V-12
			c0,3-1.6,4.5-4.5,4.5H22.6z M29.3-38.4h39c1.5,0,2.6-1.2,2.6-2.7c0-1.5-1.1-2.6-2.6-2.6h-39c-1.6,0-2.7,1.1-2.7,2.6
			C26.7-39.6,27.8-38.4,29.3-38.4z M29.3-27.2h39c1.5,0,2.6-1.2,2.6-2.6c0-1.5-1.1-2.7-2.6-2.7h-39c-1.6,0-2.7,1.2-2.7,2.7
			C26.7-28.4,27.8-27.2,29.3-27.2z M29.3-16.1h24.3c1.5,0,2.6-1.2,2.6-2.6c0-1.5-1.1-2.7-2.6-2.7H29.3c-1.6,0-2.7,1.2-2.7,2.7
			C26.7-17.2,27.8-16.1,29.3-16.1z"/>
	</g>
	<g id="Regular-S" transform="matrix(1 0 0 1 1401.8 696)">
		<path d="M22.2,0.4h51.7c8.3,0,12.5-4.1,12.5-12.3v-46.6c0-8.2-4.1-12.3-12.5-12.3H22.2c-8.3,0-12.5,4.1-12.5,12.3v46.6
			C9.8-3.7,13.9,0.4,22.2,0.4z M21.5-6.7c-3,0-4.7-1.6-4.7-4.8v-36.7c0-3.2,1.7-4.8,4.7-4.8h53c3,0,4.8,1.6,4.8,4.8v36.7
			c0,3.2-1.8,4.8-4.8,4.8H21.5z M28.5-38.6h39.2c1.5,0,2.6-1.2,2.6-2.7c0-1.5-1.1-2.6-2.6-2.6H28.5c-1.6,0-2.7,1.1-2.7,2.6
			C25.8-39.7,26.9-38.6,28.5-38.6z M28.5-27.2h39.2c1.5,0,2.6-1.1,2.6-2.6c0-1.5-1.1-2.7-2.6-2.7H28.5c-1.6,0-2.7,1.2-2.7,2.7
			C25.8-28.3,26.9-27.2,28.5-27.2z M28.5-15.8H53c1.5,0,2.6-1.1,2.6-2.6c0-1.5-1.1-2.7-2.6-2.7H28.5c-1.6,0-2.7,1.2-2.7,2.7
			C25.8-16.9,26.9-15.8,28.5-15.8z"/>
	</g>
	<g id="Light-S" transform="matrix(1 0 0 1 1105.36 696)">
		<path d="M21.4-0.3h52.7c7.8,0,11.7-3.9,11.7-11.5v-46.8c0-7.6-3.9-11.5-11.7-11.5H21.4c-7.7,0-11.6,3.9-11.6,11.5v46.8
			C9.8-4.2,13.7-0.3,21.4-0.3z M20.9-5.7c-3.7,0-5.8-2-5.8-5.8V-47c0-3.9,2.1-5.8,5.8-5.8h53.6c3.7,0,5.8,2,5.8,5.8v35.5
			c0,3.9-2.1,5.8-5.8,5.8H20.9z M27.3-38.8h41c1.2,0,2.1-0.9,2.1-2.1c0-1.2-0.9-2.1-2.1-2.1h-41c-1.2,0-2.1,0.9-2.1,2.1
			C25.1-39.7,26.1-38.8,27.3-38.8z M27.3-27.1h41c1.2,0,2.1-0.9,2.1-2.1c0-1.2-0.9-2.1-2.1-2.1h-41c-1.2,0-2.1,0.9-2.1,2.1
			C25.1-28.1,26.1-27.1,27.3-27.1z M27.3-15.5h26.3c1.2,0,2.1-0.9,2.1-2.1c0-1.2-0.9-2.1-2.1-2.1H27.3c-1.2,0-2.1,0.9-2.1,2.1
			C25.1-16.4,26.1-15.5,27.3-15.5z"/>
	</g>
	<g id="Thin-S" transform="matrix(1 0 0 1 809.01 696)">
		<path d="M20.3-1.1h54.2c7,0,10.6-3.7,10.6-10.5v-47.1c0-6.9-3.6-10.5-10.6-10.5H20.3c-6.9,0-10.5,3.6-10.5,10.5v47.1
			C9.8-4.7,13.4-1.1,20.3-1.1z M20.2-4.4c-4.7,0-7.1-2.4-7.1-7.1v-33.9c0-4.7,2.4-7.2,7.1-7.2h54.3c4.5,0,7.2,2.4,7.2,7.2v33.9
			c0,4.7-2.6,7.1-7.2,7.1H20.2z M25.8-39.2H69c0.8,0,1.5-0.6,1.5-1.4c0-0.8-0.6-1.4-1.5-1.4H25.8c-0.8,0-1.5,0.6-1.5,1.4
			C24.3-39.8,25-39.2,25.8-39.2z M25.8-27.1H69c0.8,0,1.5-0.6,1.5-1.4c0-0.8-0.6-1.5-1.5-1.5H25.8c-0.8,0-1.5,0.6-1.5,1.5
			C24.3-27.7,25-27.1,25.8-27.1z M25.8-15.1h28.6c0.8,0,1.5-0.6,1.5-1.4c0-0.8-0.6-1.4-1.5-1.4H25.8c-0.8,0-1.5,0.6-1.5,1.4
			C24.3-15.7,25-15.1,25.8-15.1z"/>
	</g>
	<g id="Ultralight-S" transform="matrix(1 0 0 1 512.494 696)">
		<path d="M19.8-1.6h54.9c6.5,0,10-3.6,10-10v-47.3c0-6.4-3.5-10-10-10H19.8c-6.5,0-10,3.5-10,10v47.3C9.8-5,13.2-1.6,19.8-1.6z
			 M19.8-3.8c-5.2,0-7.9-2.7-7.9-7.9v-33.1c0-5.2,2.7-7.8,7.9-7.8h54.8c5,0,7.9,2.6,7.9,7.8v33.1c0,5.2-2.9,7.9-7.9,7.9H19.8z
			 M25-39.3h44.4c0.6,0,1.1-0.5,1.1-1.1c0-0.6-0.5-1.1-1.1-1.1H25c-0.6,0-1.1,0.5-1.1,1.1C23.9-39.8,24.4-39.3,25-39.3z M25-27.1
			h44.4c0.6,0,1.1-0.5,1.1-1.1c0-0.6-0.5-1-1.1-1H25c-0.6,0-1.1,0.4-1.1,1C23.9-27.6,24.4-27.1,25-27.1z M25-14.9h29.8
			c0.6,0,1.1-0.5,1.1-1.1c0-0.6-0.5-1-1.1-1H25c-0.6,0-1.1,0.4-1.1,1C23.9-15.4,24.4-14.9,25-14.9z"/>
	</g>
</g>
</svg>
