<?xml version="1.0" encoding="utf-8"?>
<!-- Generator: Adobe Illustrator 24.1.0, SVG Export Plug-In . SVG Version: 6.00 Build 0)  -->
<svg version="1.1" id="Layer_1" xmlns="http://www.w3.org/2000/svg" xmlns:xlink="http://www.w3.org/1999/xlink" x="0px" y="0px"
	 viewBox="0 0 3300 2200" style="enable-background:new 0 0 3300 2200;" xml:space="preserve">
<g id="Symbols">
	<g id="Black-L" transform="matrix(1 0 0 1 2854.05 1556)">
		<path d="M79.3,32.9c37.4,0,68.1-30.7,68.1-68.1c0-37.4-30.7-68.1-68.1-68.1c-37.4,0-68,30.7-68,68.1C11.3,2.2,41.9,32.9,79.3,32.9
			z M79.3,12.4C53,12.4,31.7-8.8,31.7-35.2s21.2-47.6,47.6-47.6c26.4,0,47.7,21.2,47.7,47.6C127-8.8,105.7,12.4,79.3,12.4z M58.4-27
			h12.7v12.7c0,4.6,3.5,8,8.2,8s8.2-3.4,8.2-8V-27h12.7c4.6,0,8-3.5,8-8.2s-3.4-8.2-8-8.2H87.5v-12.7c0-4.6-3.5-8-8.2-8
			s-8.2,3.4-8.2,8v12.7H58.4c-4.6,0-8,3.5-8,8.2S53.8-27,58.4-27z"/>
	</g>
	<g id="Heavy-L" transform="matrix(1 0 0 1 2558.39 1556)">
		<path d="M78.3,31.8c36.8,0,67-30.2,67-67c0-36.8-30.3-67-67-67c-36.8,0-67,30.2-67,67C11.3,1.6,41.5,31.8,78.3,31.8z M78.3,14
			C51,14,29.1-8,29.1-35.2c0-27.3,21.9-49.3,49.2-49.3c27.2,0,49.2,22,49.3,49.3C127.5-8,105.6,14,78.3,14z M56.5-27.9h14.4v14.5
			c0,4.2,3.1,7.2,7.3,7.2c4.2,0,7.4-3,7.4-7.2v-14.5H100c4.1,0,7.2-3.1,7.2-7.3s-3-7.3-7.2-7.3H85.6V-57c0-4.2-3.1-7.2-7.4-7.2
			c-4.2,0-7.3,3.1-7.3,7.2v14.5H56.5c-4.2,0-7.2,3.1-7.2,7.3S52.3-27.9,56.5-27.9z"/>
	</g>
	<g id="Bold-L" transform="matrix(1 0 0 1 2262.88 1556)">
		<path d="M77.1,30.6c36.1,0,65.8-29.7,65.8-65.8c0-36.1-29.7-65.8-65.9-65.8c-36.1,0-65.8,29.7-65.8,65.8
			C11.3,0.9,41,30.6,77.1,30.6z M77.1,15.8c-28.3,0-51-22.8-51-51.1s22.7-51,51-51c28.3,0,51.1,22.8,51.1,51
			C128.2-7,105.4,15.8,77.1,15.8z M54.3-28.9h16.4v16.4c0,3.6,2.7,6.3,6.3,6.3c3.7,0,6.4-2.6,6.4-6.3v-16.4h16.4
			c3.7,0,6.3-2.7,6.3-6.3c0-3.7-2.6-6.4-6.3-6.4H83.4V-58c0-3.7-2.7-6.3-6.4-6.3c-3.6,0-6.3,2.6-6.3,6.3v16.4H54.3
			c-3.7,0-6.3,2.7-6.3,6.4C48-31.5,50.7-28.9,54.3-28.9z"/>
	</g>
	<g id="Semibold-L" transform="matrix(1 0 0 1 1966.97 1556)">
		<path d="M76.3,29.7c35.6,0,65-29.3,65-65s-29.4-65-65-65c-35.6,0-65,29.3-65,65S40.7,29.7,76.3,29.7z M76.3,17
			C47.3,17,24-6.2,24-35.3c0-29,23.2-52.3,52.2-52.3c29,0,52.3,23.3,52.3,52.3C128.7-6.2,105.3,17,76.3,17z M52.9-29.5h17.7v17.7
			c0,3.3,2.4,5.7,5.6,5.7c3.4,0,5.8-2.3,5.8-5.7v-17.7h17.7c3.3,0,5.7-2.4,5.7-5.6c0-3.4-2.3-5.8-5.7-5.8H81.9v-17.7
			c0-3.4-2.4-5.7-5.8-5.7c-3.2,0-5.6,2.4-5.6,5.7v17.7H52.9c-3.4,0-5.7,2.4-5.7,5.8C47.2-31.9,49.6-29.5,52.9-29.5z"/>
	</g>
	<g id="Medium-L" transform="matrix(1 0 0 1 1670.87 1556)">
		<path d="M75.7,29.2c35.3,0,64.4-29.2,64.4-64.4s-29.2-64.4-64.5-64.4c-35.3,0-64.4,29.2-64.4,64.4S40.4,29.2,75.7,29.2z M75.7,18
			C46.1,18,22.5-5.8,22.5-35.3s23.7-53.3,53.2-53.3s53.3,23.8,53.3,53.3C129-5.8,105.2,18,75.7,18z M51.8-30.1h18.7v18.8
			c0,3,2.1,5.2,5.1,5.2c3.1,0,5.3-2.1,5.3-5.2v-18.8h18.8c3,0,5.2-2.1,5.2-5.1c0-3.1-2.1-5.2-5.2-5.2H80.8v-18.8
			c0-3.1-2.2-5.2-5.3-5.2c-2.9,0-5.1,2.2-5.1,5.2v18.8H51.8c-3.1,0-5.2,2.1-5.2,5.2C46.5-32.2,48.7-30.1,51.8-30.1z"/>
	</g>
	<g id="Regular-L" transform="matrix(1 0 0 1 1374.97 1556)">
		<path d="M74.9,28.3c34.8,0,63.6-28.8,63.6-63.6c0-34.8-28.9-63.6-63.7-63.6c-34.8,0-63.5,28.8-63.5,63.6
			C11.3-0.5,40.1,28.3,74.9,28.3z M74.9,19.2c-30.2,0-54.4-24.3-54.4-54.5c0-30.2,24.2-54.5,54.4-54.5c30.2,0,54.5,24.3,54.5,54.5
			C129.4-5.1,105.1,19.2,74.9,19.2z M50.3-30.7h20v20.1c0,2.7,1.9,4.5,4.4,4.5c2.7,0,4.5-1.9,4.5-4.5v-20.1h20.1
			c2.6,0,4.5-1.9,4.5-4.4c0-2.7-1.9-4.6-4.5-4.6H79.3v-20c0-2.8-1.9-4.6-4.5-4.6c-2.6,0-4.4,1.9-4.4,4.6v20h-20
			c-2.8,0-4.6,1.9-4.6,4.6C45.7-32.6,47.6-30.7,50.3-30.7z"/>
	</g>
	<g id="Light-L" transform="matrix(1 0 0 1 1079.18 1556)">
		<path d="M73.9,27.4c34.4,0,62.7-28.3,62.7-62.6c0-34.4-28.4-62.7-62.7-62.7c-34.4,0-62.6,28.3-62.6,62.7
			C11.3-0.9,39.6,27.4,73.9,27.4z M73.9,20.5c-30.8,0-55.7-25-55.7-55.8C18.2-66.1,43.1-91,73.9-91c30.8,0,55.8,24.9,55.8,55.8
			C129.7-4.4,104.8,20.5,73.9,20.5z M48.6-31.8h21.9v21.9c0,2,1.5,3.5,3.4,3.5c2.1,0,3.5-1.4,3.5-3.5v-21.9h21.9
			c2,0,3.5-1.4,3.5-3.4c0-2.1-1.4-3.5-3.5-3.5H77.3v-21.9c0-2.1-1.5-3.5-3.5-3.5c-1.9,0-3.4,1.5-3.4,3.5v21.9H48.6
			c-2.1,0-3.5,1.5-3.5,3.5C45.1-33.2,46.6-31.8,48.6-31.8z"/>
	</g>
	<g id="Thin-L" transform="matrix(1 0 0 1 783.693 1556)">
		<path d="M72.7,26.2c33.8,0,61.5-27.7,61.5-61.4c0-33.8-27.7-61.5-61.5-61.5C39-96.7,11.3-69,11.3-35.3C11.3-1.5,39,26.2,72.7,26.2
			z M72.7,22.2C41,22.2,15.3-3.6,15.3-35.3C15.3-67,41-92.7,72.7-92.7c31.7,0,57.5,25.7,57.5,57.5C130.2-3.6,104.4,22.2,72.7,22.2z
			 M46.4-33.2h24.3v24.3c0,1.1,0.9,2.1,2,2.1c1.2,0,2.1-0.9,2.1-2.1v-24.3h24.3c1.1,0,2.1-0.9,2.1-2c0-1.2-0.9-2.1-2.1-2.1H74.8
			v-24.3c0-1.2-0.9-2.1-2.1-2.1c-1,0-2,1-2,2.1v24.3H46.4c-1.2,0-2.1,0.9-2.1,2.1C44.3-34.1,45.2-33.2,46.4-33.2z"/>
	</g>
	<g id="Ultralight-L" transform="matrix(1 0 0 1 487.616 1556)">
		<path d="M72.1,25.5c33.4,0,60.8-27.3,60.8-60.8c0-33.5-27.3-60.8-60.8-60.8c-33.5,0-60.8,27.3-60.8,60.8
			C11.3-1.8,38.6,25.5,72.1,25.5z M72.1,23C39.9,23,13.8-3.1,13.8-35.3c0-32.2,26.2-58.3,58.3-58.3c32.1,0,58.3,26.2,58.3,58.3
			C130.4-3.1,104.2,23,72.1,23z M45.2-33.8h25.5v25.5C70.8-7.7,71.4-7,72-7c0.7,0,1.4-0.6,1.4-1.3v-25.5H99c0.6,0,1.3-0.7,1.3-1.3
			c0-0.7-0.6-1.4-1.3-1.4H73.4v-25.5c0-0.7-0.7-1.3-1.4-1.3c-0.6,0-1.3,0.7-1.3,1.3v25.5H45.2c-0.7,0-1.3,0.7-1.3,1.4
			C43.9-34.5,44.6-33.8,45.2-33.8z"/>
	</g>
	<g id="Black-M" transform="matrix(1 0 0 1 2870.97 1126)">
		<path d="M62.4,18.5c29.6,0,53.7-24.1,53.7-53.7c0-29.6-24.1-53.7-53.7-53.7c-29.6,0-53.7,24.1-53.7,53.7
			C8.7-5.6,32.8,18.5,62.4,18.5z M62.4,0.2C42.9,0.2,27-15.6,27-35.2c0-19.5,15.9-35.4,35.4-35.4c19.6,0,35.4,15.9,35.4,35.4
			C97.8-15.6,82,0.2,62.4,0.2z M47-28.2h8.5v8.5c0,3.8,3,6.7,6.9,6.7c4,0,7-2.9,7-6.7v-8.5h8.5c3.8,0,6.7-3,6.7-7s-2.9-7-6.7-7h-8.5
			v-8.4c0-3.9-3-6.7-7-6.7c-4,0-6.9,2.9-6.9,6.7v8.4H47c-3.8,0-6.7,3-6.7,7S43.2-28.2,47-28.2z"/>
	</g>
	<g id="Heavy-M" transform="matrix(1 0 0 1 2575.19 1126)">
		<path d="M61.5,17.5c29,0,52.7-23.7,52.7-52.7c0-29.1-23.7-52.8-52.8-52.8c-29,0-52.7,23.7-52.7,52.8C8.7-6.2,32.5,17.5,61.5,17.5z
			 M61.5,1.6c-20.4,0-36.9-16.5-36.9-36.8c0-20.4,16.5-36.9,36.8-36.9c20.4,0,36.9,16.5,36.9,36.9C98.3-14.8,81.9,1.6,61.5,1.6z
			 M45.3-28.9h9.9v9.9c0,3.5,2.7,6.1,6.2,6.1c3.6,0,6.3-2.6,6.3-6.1v-9.9h9.9c3.5,0,6.1-2.7,6.1-6.3c0-3.6-2.6-6.3-6.1-6.3h-9.9
			v-9.9c0-3.5-2.7-6.1-6.3-6.1c-3.6,0-6.2,2.6-6.2,6.1v9.9h-9.9c-3.5,0-6.1,2.7-6.1,6.3C39.2-31.6,41.8-28.9,45.3-28.9z"/>
	</g>
	<g id="Bold-M" transform="matrix(1 0 0 1 2279.5 1126)">
		<path d="M60.5,16.5c28.4,0,51.7-23.3,51.7-51.7c0-28.4-23.3-51.8-51.8-51.8S8.7-63.6,8.7-35.2C8.7-6.8,32.1,16.5,60.5,16.5z
			 M60.5,3.2c-21.3,0-38.4-17.1-38.4-38.4c0-21.3,17.1-38.5,38.4-38.5c21.3,0,38.5,17.1,38.5,38.5C99-13.9,81.8,3.2,60.5,3.2z
			 M43.5-29.7h11.5v11.5c0,3.1,2.3,5.4,5.5,5.4S66-15,66-18.2v-11.5h11.5c3.1,0,5.4-2.3,5.4-5.5c0-3.2-2.2-5.6-5.4-5.6H66v-11.5
			c0-3.2-2.3-5.4-5.5-5.4s-5.5,2.2-5.5,5.4v11.5H43.5c-3.2,0-5.5,2.4-5.5,5.6C38-32,40.3-29.7,43.5-29.7z"/>
	</g>
	<g id="Semibold-M" transform="matrix(1 0 0 1 1983.5 1126)">
		<path d="M59.8,15.8c28,0,51-23.1,51-51.1s-23.1-51-51-51c-28,0-51,23-51,51S31.8,15.8,59.8,15.8z M59.8,4.3
			c-21.9,0-39.5-17.7-39.5-39.6s17.5-39.6,39.5-39.6c21.9,0,39.6,17.6,39.6,39.6C99.4-13.3,81.7,4.3,59.8,4.3z M42.1-30.2h12.6v12.6
			c0,2.9,2.1,5,5,5c2.9,0,5-2.1,5-5v-12.6h12.6c2.9,0,5-2.1,5-5c0-2.9-2.1-5-5-5H64.7v-12.6c0-2.9-2.1-5-5-5c-2.9,0-5,2.1-5,5v12.6
			H42.1c-2.9,0-5,2.1-5,5C37.2-32.3,39.3-30.2,42.1-30.2z"/>
	</g>
	<g id="Medium-M" transform="matrix(1 0 0 1 1687.3 1126)">
		<path d="M59.2,15.2c27.7,0,50.5-22.9,50.5-50.5S86.9-85.7,59.2-85.7c-27.6,0-50.4,22.9-50.4,50.5S31.6,15.2,59.2,15.2z M59.2,5.2
			c-22.4,0-40.3-18-40.3-40.4s17.9-40.4,40.3-40.4c22.4,0,40.4,18,40.5,40.4C99.7-12.8,81.6,5.2,59.2,5.2z M41.2-30.6h13.4v13.4
			c0,2.7,1.9,4.6,4.5,4.6c2.7,0,4.7-1.9,4.7-4.6v-13.4h13.4c2.7,0,4.6-1.9,4.6-4.6c0-2.7-1.9-4.6-4.6-4.6H63.8v-13.4
			c0-2.7-2-4.6-4.7-4.6c-2.6,0-4.5,1.9-4.5,4.6v13.4H41.2c-2.8,0-4.7,2-4.7,4.6C36.5-32.5,38.5-30.6,41.2-30.6z"/>
	</g>
	<g id="Regular-M" transform="matrix(1 0 0 1 1391.3 1126)">
		<path d="M58.5,14.6c27.2,0,49.8-22.6,49.8-49.8c0-27.2-22.6-49.8-49.9-49.8c-27.2,0-49.8,22.6-49.8,49.8
			C8.7-8.1,31.3,14.6,58.5,14.6z M58.5,6.2c-23,0-41.5-18.5-41.5-41.5s18.4-41.5,41.4-41.5S100-58.3,100-35.3
			C100.1-12.2,81.6,6.2,58.5,6.2z M39.9-31.2h14.5v14.6c0,2.4,1.7,4.1,4.1,4.1c2.4,0,4.2-1.7,4.2-4.1v-14.6h14.6
			c2.4,0,4.1-1.7,4.1-4.1c0-2.4-1.7-4.2-4.1-4.2H62.6v-14.5c0-2.5-1.7-4.2-4.2-4.2c-2.4,0-4.1,1.7-4.1,4.2v14.5H39.9
			c-2.5,0-4.2,1.7-4.2,4.2C35.7-32.8,37.5-31.2,39.9-31.2z"/>
	</g>
	<g id="Light-M" transform="matrix(1 0 0 1 1095.42 1126)">
		<path d="M57.7,13.7c26.8,0,49-22.2,49-49c0-26.9-22.2-49-49-49c-26.8,0-48.9,22.1-48.9,49C8.7-8.4,30.9,13.7,57.7,13.7z M57.7,7.4
			c-23.6,0-42.6-19-42.6-42.6c0-23.6,19-42.7,42.6-42.7c23.6,0,42.7,19,42.7,42.7C100.4-11.7,81.3,7.4,57.7,7.4z M38.4-32.1h16.1
			v16.2c0,1.9,1.3,3.2,3.1,3.2c1.9,0,3.2-1.3,3.2-3.2v-16.2H77c1.9,0,3.2-1.3,3.2-3.1c0-1.9-1.3-3.2-3.2-3.2H60.8v-16.1
			c0-1.9-1.3-3.2-3.2-3.2c-1.8,0-3.1,1.3-3.1,3.2v16.1H38.4c-1.9,0-3.2,1.3-3.2,3.2C35.2-33.4,36.5-32.1,38.4-32.1z"/>
	</g>
	<g id="Thin-M" transform="matrix(1 0 0 1 799.806 1126)">
		<path d="M56.6,12.6c26.3,0,47.9-21.6,47.9-47.9c0-26.3-21.6-47.9-47.9-47.9c-26.3,0-47.9,21.6-47.9,47.9
			C8.7-9,30.3,12.6,56.6,12.6z M56.6,8.9c-24.4,0-44.2-19.8-44.2-44.1s19.8-44.2,44.1-44.2c24.4,0,44.2,19.8,44.2,44.2
			S81,8.9,56.6,8.9z M36.4-33.3h18.3V-15c0,1,0.8,1.9,1.8,1.9c1.1,0,2-0.8,2-1.9v-18.3h18.3c1.1,0,1.9-0.8,1.9-1.9
			c0-1.1-0.8-2-1.9-2H58.5v-18.3c0-1.1-0.8-1.9-2-1.9c-1,0-1.8,0.8-1.8,1.9v18.3H36.4c-1.1,0-1.9,0.8-1.9,2
			C34.5-34.1,35.4-33.3,36.4-33.3z"/>
	</g>
	<g id="Ultralight-M" transform="matrix(1 0 0 1 503.656 1126)">
		<path d="M56.1,12.1c26,0,47.3-21.3,47.3-47.3S82.1-82.6,56.1-82.6S8.7-61.3,8.7-35.3S30,12.1,56.1,12.1z M56.1,9.7
			c-24.8,0-44.9-20.2-44.9-44.9c0-24.8,20.2-44.9,44.9-44.9c24.8,0,44.9,20.1,44.9,44.9C101-10.5,80.9,9.7,56.1,9.7z M35.4-33.9
			h19.4v19.4c0,0.7,0.6,1.3,1.2,1.3c0.7,0,1.3-0.5,1.3-1.3v-19.4h19.4c0.7,0,1.3-0.6,1.3-1.2c0-0.7-0.5-1.3-1.3-1.3H57.3v-19.4
			c0-0.7-0.6-1.3-1.3-1.3c-0.6,0-1.2,0.6-1.2,1.3v19.4H35.4c-0.7,0-1.3,0.6-1.3,1.3C34.1-34.5,34.8-33.9,35.4-33.9z"/>
	</g>
	<g id="Black-S" transform="matrix(1 0 0 1 2884.57 696)">
		<path d="M48.8,6.8c23.1,0,42-18.8,42-42c0-23.1-18.8-42-42-42c-23.1,0-42,18.8-42,42C6.8-12.1,25.7,6.8,48.8,6.8z M48.8-7.4
			C33.4-7.4,21-19.8,21-35.2C21-50.6,33.4-63,48.8-63c15.4,0,27.8,12.5,27.8,27.8C76.7-19.8,64.2-7.4,48.8-7.4z M36.7-29.8h6.7v6.7
			c0,3,2.3,5.2,5.4,5.2c3.1,0,5.4-2.2,5.4-5.2v-6.7H61c3,0,5.2-2.3,5.2-5.4c0-3.1-2.2-5.4-5.2-5.4h-6.7v-6.7c0-3-2.3-5.2-5.4-5.2
			c-3.1,0-5.4,2.2-5.4,5.2v6.7h-6.7c-3,0-5.2,2.3-5.2,5.4C31.4-32.1,33.7-29.8,36.7-29.8z"/>
	</g>
	<g id="Heavy-S" transform="matrix(1 0 0 1 2588.47 696)">
		<path d="M48.2,6.2c22.8,0,41.4-18.6,41.4-41.4S71-76.6,48.2-76.6C25.4-76.6,6.8-58,6.8-35.2S25.4,6.2,48.2,6.2z M48.2-6.4
			c-16,0-28.8-12.9-28.8-28.8c0-16,12.8-28.8,28.8-28.8c16,0,28.8,12.8,28.9,28.8C77.1-19.3,64.2-6.4,48.2-6.4z M35.5-30.2h7.7v7.7
			c0,2.8,2.1,4.9,5,4.9c2.9,0,5-2.1,5-4.9v-7.7h7.7c2.8,0,4.8-2.1,4.8-5c0-2.9-2.1-5-4.8-5h-7.7v-7.6c0-2.8-2.1-4.9-5-4.9
			c-2.8,0-5,2.1-5,4.9v7.6h-7.7c-2.8,0-4.9,2.1-4.9,5C30.7-32.3,32.8-30.2,35.5-30.2z"/>
	</g>
	<g id="Bold-S" transform="matrix(1 0 0 1 2292.44 696)">
		<path d="M47.6,5.5c22.3,0,40.7-18.4,40.7-40.7c0-22.3-18.4-40.7-40.7-40.7c-22.3,0-40.7,18.4-40.7,40.7
			C6.8-12.9,25.2,5.5,47.6,5.5z M47.6-5.3C31-5.3,17.7-18.7,17.7-35.3c0-16.6,13.3-29.9,29.8-29.9c16.6,0,29.9,13.3,29.9,29.9
			C77.4-18.7,64.1-5.3,47.6-5.3z M34.3-30.7H43v8.6c0,2.6,1.9,4.5,4.5,4.5c2.6,0,4.5-1.9,4.5-4.5v-8.6h8.7c2.6,0,4.4-1.9,4.4-4.5
			s-1.9-4.5-4.4-4.5h-8.7v-8.7c0-2.6-1.9-4.5-4.5-4.5c-2.6,0-4.5,1.9-4.5,4.5v8.7h-8.6c-2.6,0-4.5,1.9-4.5,4.5S31.7-30.7,34.3-30.7z
			"/>
	</g>
	<g id="Semibold-S" transform="matrix(1 0 0 1 1996.2 696)">
		<path d="M47.1,5c22,0,40.2-18.2,40.2-40.2c0-22-18.2-40.2-40.3-40.2c-22,0-40.2,18.2-40.2,40.2C6.8-13.2,25,5,47.1,5z M47.1-4.6
			c-17,0-30.6-13.6-30.6-30.7c0-17,13.6-30.6,30.6-30.6c17,0,30.7,13.6,30.7,30.6C77.7-18.2,64.1-4.6,47.1-4.6z M33.5-31h9.3v9.4
			c0,2.4,1.8,4.2,4.2,4.2c2.5,0,4.2-1.8,4.2-4.2V-31h9.4c2.4,0,4.2-1.8,4.2-4.2c0-2.5-1.8-4.2-4.2-4.2h-9.4v-9.3
			c0-2.5-1.8-4.2-4.2-4.2c-2.4,0-4.2,1.8-4.2,4.2v9.3h-9.3c-2.5,0-4.2,1.8-4.2,4.2C29.2-32.8,31-31,33.5-31z"/>
	</g>
	<g id="Medium-S" transform="matrix(1 0 0 1 1699.83 696)">
		<path d="M46.7,4.6c21.8,0,39.9-18.1,39.9-39.9S68.5-75.1,46.7-75.1S6.8-57.1,6.8-35.3S24.9,4.6,46.7,4.6z M46.7-4
			C29.4-4,15.5-17.9,15.5-35.3s13.8-31.2,31.2-31.2s31.2,13.9,31.3,31.2C78-17.9,64.1-4,46.7-4z M32.8-31.2h9.9v9.9
			c0,2.3,1.6,4,3.9,4c2.4,0,4.1-1.6,4.1-4v-9.9h9.9c2.3,0,4-1.6,4-4c0-2.3-1.7-4-4-4h-9.9v-9.9c0-2.4-1.7-4.1-4.1-4.1
			c-2.3,0-3.9,1.7-3.9,4.1v9.9h-9.9c-2.3,0-4,1.7-4,4C28.8-32.9,30.5-31.2,32.8-31.2z"/>
	</g>
	<g id="Regular-S" transform="matrix(1 0 0 1 1403.58 696)">
		<path d="M46.2,4.2c21.5,0,39.5-17.9,39.5-39.4s-18-39.4-39.5-39.4c-21.5,0-39.4,17.9-39.4,39.4S24.8,4.2,46.2,4.2z M46.2-3.3
			c-17.7,0-31.9-14.2-31.9-32s14.1-32,31.8-32c17.8,0,32,14.2,32,32C78.3-17.5,64-3.3,46.2-3.3z M32-31.6h10.5V-21
			c0,2.2,1.5,3.7,3.6,3.7c2.2,0,3.7-1.5,3.7-3.7v-10.6h10.6c2.2,0,3.7-1.5,3.7-3.6c0-2.2-1.5-3.7-3.7-3.7H49.9v-10.5
			c0-2.2-1.5-3.8-3.7-3.8c-2.1,0-3.6,1.5-3.6,3.8v10.5H32c-2.2,0-3.8,1.5-3.8,3.7C28.2-33.1,29.7-31.6,32-31.6z"/>
	</g>
	<g id="Light-S" transform="matrix(1 0 0 1 1107.6 696)">
		<path d="M45.5,3.4c21.2,0,38.7-17.5,38.7-38.7S66.7-73.9,45.5-73.9c-21.2,0-38.7,17.5-38.7,38.7S24.4,3.4,45.5,3.4z M45.5-2.3
			c-18.3,0-32.9-14.7-32.9-33s14.6-33,32.9-33c18.3,0,33,14.7,33,33C78.5-17,63.8-2.3,45.5-2.3z M30.7-32.4h12v12.1
			c0,1.7,1.1,2.8,2.8,2.8c1.7,0,2.9-1.2,2.9-2.8v-12.1h12c1.7,0,2.9-1.1,2.9-2.8c0-1.7-1.2-2.9-2.9-2.9h-12v-12
			c0-1.8-1.2-2.9-2.9-2.9c-1.7,0-2.8,1.2-2.8,2.9v12h-12c-1.7,0-2.9,1.2-2.9,2.9C27.8-33.5,29-32.4,30.7-32.4z"/>
	</g>
	<g id="Thin-S" transform="matrix(1 0 0 1 811.867 696)">
		<path d="M44.6,2.5c20.7,0,37.7-17,37.7-37.7S65.2-73,44.5-73C23.8-73,6.8-56,6.8-35.3S23.9,2.5,44.6,2.5z M44.6-0.9
			c-19,0-34.3-15.4-34.3-34.3s15.3-34.3,34.3-34.3c19,0,34.3,15.4,34.3,34.3S63.5-0.9,44.6-0.9z M28.9-33.5h13.9v13.9
			c0,1,0.7,1.8,1.7,1.8c1,0,1.8-0.7,1.8-1.8v-13.9h13.9c1,0,1.8-0.7,1.8-1.7c0-1-0.7-1.8-1.8-1.8H46.3v-13.9c0-1-0.8-1.8-1.8-1.8
			c-0.9,0-1.7,0.8-1.7,1.8V-37H28.9c-1,0-1.8,0.8-1.8,1.8C27.1-34.2,27.9-33.5,28.9-33.5z"/>
	</g>
	<g id="Ultralight-S" transform="matrix(1 0 0 1 515.644 696)">
		<path d="M44,2c20.5,0,37.3-16.7,37.3-37.2S64.5-72.5,44-72.5S6.8-55.7,6.8-35.3S23.6,2,44,2z M44-0.2c-19.3,0-35-15.7-35-35
			s15.7-35,35-35c19.3,0,35,15.7,35,35S63.4-0.2,44-0.2z M28-34h14.9v14.9c0,0.6,0.5,1.2,1.1,1.2c0.7,0,1.2-0.5,1.2-1.2V-34h14.9
			c0.6,0,1.2-0.5,1.2-1.1c0-0.7-0.5-1.2-1.2-1.2H45.2v-14.9c0-0.7-0.5-1.2-1.2-1.2c-0.5,0-1.1,0.5-1.1,1.2v14.9H28
			c-0.6,0-1.2,0.5-1.2,1.2C26.8-34.6,27.4-34,28-34z"/>
	</g>
</g>
</svg>
